<?xml version="1.0" encoding="utf-8"?>
<!-- Generator: Adobe Illustrator 27.5.0, SVG Export Plug-In . SVG Version: 6.00 Build 0)  -->
<svg version="1.1" id="Capa_1" xmlns="http://www.w3.org/2000/svg" xmlns:xlink="http://www.w3.org/1999/xlink" x="0px" y="0px"
	 viewBox="0 0 2122 2122" style="enable-background:new 0 0 2122 2122;" xml:space="preserve">
<g>
	<path style="fill:#F28C42;" d="M1980.281,849.427c-0.548,1.296-1.196,2.543-2.095,3.742c-0.697,0.945-1.496,1.793-2.295,2.641
		c-1.196,1.247-2.594,2.299-3.99,3.347c-1.099,0.794-2.195,1.496-3.342,2.192l-1.147,0.75l-0.999,0.55l-1.198,0.644
		c-2.592,1.398-5.286,2.597-7.881,3.795c-0.499,0.248-0.948,0.448-1.447,0.648l-1.247,0.599l-0.251,0.097l-0.248,0.102
		c-4.54,2.193-9.179,4.19-13.82,6.134c-1.047,0.453-2.146,0.848-3.193,1.301c-3.642,1.442-7.233,2.894-10.926,4.287
		c-0.599,0.249-1.247,0.449-1.895,0.702c-27.491,10.226-55.878,18.158-83.317,28.584l-0.2,0.048
		c25.844,8.531,49.493,23.099,67.702,43.503c10.675,12.078,19.108,26.192,22.75,42.012c3.291,14.319,2.991,28.935,0.996,43.405
		c-0.049,0.595-0.149,1.247-0.2,1.891c-1.944,13.525-5.438,26.743-9.279,39.863l-0.348,1.198l-1.048,3.742
		c-0.55,1.696-1.05,3.445-1.547,5.14c-0.499,1.695-0.999,3.342-1.547,4.989c-4.29,14.065-8.93,27.99-13.819,41.856
		c-0.799,2.246-1.547,4.444-2.395,6.685c-1.147,3.245-2.295,6.49-3.493,9.729c-2.244,6.139-4.49,12.175-6.785,18.26
		c-10.977,29.184-22.75,58.119-34.974,86.806c-11.922,28.043-24.346,55.829-36.967,83.468c-0.251,0.599-0.55,1.199-0.799,1.798
		c-2.695,5.885-5.389,11.771-8.132,17.612c-0.499,1.145-1.099,2.344-1.598,3.537c-0.896,1.949-1.796,3.946-2.743,5.939
		c-3.542,7.683-7.135,15.366-10.777,23.001c-7.632,16.165-15.315,32.277-23.099,48.341l-0.548,1.198
		c-0.648,1.344-1.348,2.743-2.046,4.092c-0.848,1.744-1.695,3.542-2.594,5.286c-0.797,1.647-1.595,3.342-2.444,4.989
		c2.244-0.648,4.49-1.247,6.736-1.798c2.144-0.545,4.29-1.043,6.434-1.496l1.05-0.2c2.044-0.497,4.091-0.896,6.185-1.247
		c2.294-0.448,4.589-0.799,6.884-1.145c2.294-0.351,4.589-0.648,6.935-0.901c2.295-0.249,4.641-0.497,6.935-0.648
		c2.344-0.2,4.638-0.346,6.984-0.395c2.295-0.102,4.641-0.151,6.936-0.151c6.933,0,13.868,0.4,20.804,1.193
		c4.29,0.502,8.531,1.199,12.721,2.046c1.946,0.4,3.893,0.848,5.788,1.35c2.046,0.497,4.09,1.048,6.085,1.647
		c9.13,2.645,18.061,6.182,26.592,10.475c1.198,0.599,2.394,1.198,3.593,1.846c3.094,1.647,6.136,3.391,9.079,5.291
		c1.198,0.697,2.346,1.442,3.493,2.242c0.448,0.253,0.896,0.55,1.347,0.848c1.247,0.901,2.495,1.749,3.691,2.597l0.299,0.249
		c1.398,0.999,2.745,1.998,4.092,3.045c0.848,0.599,1.696,1.247,2.543,1.993c0.799,0.648,1.595,1.296,2.395,1.998
		c2.643,2.143,5.189,4.438,7.632,6.835c1.347,1.247,2.645,2.592,3.892,3.892l1.196,1.247l1.247,1.345
		c0.75,0.848,1.498,1.695,2.246,2.543c1.047,1.199,2.095,2.397,3.042,3.644c1.048,1.247,1.998,2.495,2.945,3.742
		c0.796,1.048,1.595,2.095,2.343,3.143c3.394,4.789,6.436,9.729,9.13,14.914c0.947,1.749,1.846,3.547,2.643,5.34
		c0.75,1.549,1.447,3.142,2.046,4.741c0.499,1.096,0.948,2.246,1.347,3.391c0.6,1.496,1.099,2.948,1.596,4.444
		c0.45,1.247,0.85,2.495,1.198,3.742c0.348,1.096,0.648,2.246,0.899,3.391c0.448,1.598,0.848,3.191,1.147,4.789
		c0.299,1.096,0.497,2.198,0.697,3.294c0.251,1.198,0.45,2.397,0.599,3.59l0.1,0.551c0.3,1.744,0.499,3.493,0.699,5.238
		c0.149,1.797,0.299,3.542,0.4,5.286c0.148,2.149,0.2,4.292,0.2,6.49c0,1.895-0.051,3.742-0.151,5.637
		c-0.149,2.792-0.348,5.588-0.648,8.331c-0.1,0.848-0.199,1.647-0.299,2.495c-0.248,1.944-0.499,3.839-0.799,5.734
		c-0.149,0.901-0.299,1.798-0.448,2.699c-0.348,1.745-0.699,3.44-1.048,5.135c-0.1,0.75-0.299,1.55-0.5,2.295l-0.1,0.551
		c-0.149,0.545-0.249,1.047-0.448,1.598c-0.448,1.842-0.948,3.742-1.498,5.583c-1.247,4.443-2.743,8.785-4.49,13.072
		c-0.4,0.901-0.748,1.798-1.147,2.743c-0.248,0.653-0.548,1.35-0.848,1.998c-1.196,2.845-2.543,5.691-3.99,8.434
		c-0.699,1.447-1.498,2.889-2.295,4.287c-0.251,0.599-0.599,1.15-0.899,1.7l-0.1,0.098c-1.547,2.743-3.193,5.437-4.94,8.083
		c-1.247,1.895-2.543,3.791-3.89,5.685l-0.699,0.999c-1.547,2.144-3.191,4.293-4.838,6.387l-0.45,0.546
		c-1.595,1.998-3.242,3.941-4.938,5.837c-1.946,2.246-3.941,4.443-6.036,6.587l-0.351,0.302c-0.897,0.896-1.796,1.841-2.692,2.743
		l-0.4,0.4c-0.898,0.848-1.797,1.695-2.694,2.543v0.049c-1.498,1.398-2.994,2.743-4.541,4.093c-1.547,1.344-3.094,2.646-4.64,3.941
		c-1.296,1.097-2.592,2.144-3.89,3.143l-0.1,0.097c-21.052,16.517-45.7,29.14-71.493,37.121
		c-78.526,24.346-165.633,18.557-246.405,11.673c-84.864-7.283-169.577-19.556-254.889-19.108
		c-43.403,0.248-86.16,4.892-129.015,11.625c-42.457,6.636-84.913,14.271-127.918,16.463
		c-83.866,4.293-167.231-11.074-249.698-24.195c-82.318-13.072-164.089-22.202-247.206-10.728
		c-83.914,11.576-165.185,37.121-249.25,48.097c-57.87,7.532-120.484,15.464-161.592-34.528
		c-8.882-10.772-15.766-23.147-20.555-36.268c-4.69-13.121-7.284-26.943-7.335-40.711c-0.049-3.742,0.151-7.484,0.499-11.177
		c0.151-1.442,0.299-2.942,0.499-4.438l0.048-0.249c0.251-1.647,0.499-3.294,0.799-4.941c0.149-0.896,0.299-1.744,0.499-2.592
		c0.299-1.447,0.648-2.796,1.047-4.19c0.249-1.101,0.548-2.198,0.899-3.343c0.397-1.349,0.848-2.699,1.296-4.092
		c0.448-1.35,0.947-2.645,1.496-3.995c0.451-1.145,0.899-2.29,1.398-3.44c0.699-1.598,1.496-3.143,2.244-4.687
		c0.451-0.901,0.898-1.797,1.398-2.699c0.648-1.247,1.348-2.441,2.047-3.64c0.696-1.145,1.447-2.343,2.243-3.493
		c0.947-1.393,1.946-2.791,2.945-4.141c0.996-1.345,2.044-2.694,3.092-3.942c0.799-0.945,1.598-1.846,2.346-2.743
		c0.699-0.75,1.347-1.447,2.046-2.144c0.748-0.799,1.496-1.549,2.244-2.348c1.547-1.496,3.143-2.943,4.741-4.336
		c0.996-0.799,1.944-1.647,2.943-2.446c0.699-0.498,1.347-1.048,2.046-1.55c4.638-3.542,9.579-6.636,14.716-9.325
		c1.199-0.653,2.446-1.301,3.693-1.846l1.296-0.6c0.999-0.502,1.998-0.95,2.994-1.398c4.09-1.798,8.231-3.343,12.524-4.74
		c1.096-0.4,2.195-0.745,3.342-1.048c6.736-2.047,13.72-3.64,20.753-4.887c2.097-0.351,4.192-0.702,6.287-0.999
		c33.176-4.789,67.103-1.998,100.18-7.586c0.896-0.146,1.747-0.297,2.643-0.497c0.848-0.2,1.747-0.4,2.646-0.599
		c-0.599-1.993-1.147-4.088-1.747-6.085c-5.089-17.861-9.978-35.873-14.619-53.88c-0.149-0.502-0.248-0.999-0.4-1.496
		c-0.299-1.15-0.548-2.299-0.848-3.444c-0.4-1.598-0.848-3.143-1.196-4.741c-6.288-24.496-12.224-49.14-17.813-73.787
		c-0.748-2.894-1.347-5.788-2.044-8.682c-3.742-16.759-7.435-33.573-10.977-50.387c-4.09-19.108-7.983-38.216-11.824-57.373
		c-2.894-14.67-5.737-29.286-8.631-43.95c-0.149-0.901-0.348-1.847-0.499-2.748c-0.297-1.647-0.648-3.294-0.948-4.94
		c-0.199-0.994-0.399-2.042-0.597-3.04c-0.799-4.141-1.598-8.283-2.395-12.521c-2.146-11.225-4.241-22.451-6.387-33.676
		c-3.343-17.909-6.636-35.771-10.027-53.681c-0.051-0.453-0.151-0.901-0.251-1.35c-0.3-1.646-0.599-3.391-0.897-5.037l-0.1-0.702
		c-0.1-0.599-0.251-1.247-0.351-1.846l-0.149-0.945c-2.146-11.776-4.093-23.6-5.588-35.42c-0.049-0.502-0.1-1.053-0.149-1.55
		c-0.3-2.446-0.599-4.94-0.85-7.435c-0.049-0.497-0.1-0.994-0.149-1.496c-1.048-10.777-1.496-21.7-0.4-32.326
		c1.598-14.772,6.436-27.839,15.915-39.318c8.134-9.924,18.96-17.861,29.934-24.443c15.366-9.233,32.28-15.615,49.79-19.108
		c-1.944-2.543-3.79-5.188-5.537-7.834l-0.4-0.599c-1.796-2.743-3.491-5.486-5.089-8.331l-0.1-0.146
		c-1.447-2.597-2.743-5.188-4.042-7.834c-0.297-0.648-0.597-1.247-0.897-1.895c-1.298-2.743-2.495-5.491-3.593-8.331v-0.054
		c-0.848-2.041-1.695-4.336-2.395-6.684c-1.296-4.19-2.144-8.58-1.547-12.77c0.299-1.895,0.799-3.693,1.798-5.437l0.497-0.648
		c1.199-1.846,2.646-3.196,4.293-4.044c3.742-1.895,8.431-1.496,12.821-0.297c2.195,0.599,4.341,1.345,6.285,2.192
		c2.694,1.15,5.288,2.495,7.783,3.99c1.247,0.75,2.446,1.55,3.642,2.397c1.198,0.848,2.346,1.744,3.493,2.646
		c-0.799-1.846-1.547-3.693-2.346-5.54c-0.948-2.246-1.944-4.438-2.843-6.684c-2.843-6.987-5.589-14.119-8.083-21.354
		c-0.648-1.846-1.247-3.639-1.844-5.486c-6.436-20.058-10.378-40.911-7.435-61.963c0.899-6.436,2.545-15.118,6.584-20.906
		c0.899-1.296,1.898-2.446,3.045-3.391c1.147-0.95,2.443-1.696,3.89-2.198c0.748-0.249,1.596-0.448,2.446-0.545
		c1.547-0.2,3.291-0.151,5.189,0.248c3.191,0.648,6.085,2.046,8.631,3.941c5.188,3.791,9.228,9.578,12.273,15.517
		c1.547,2.943,2.794,5.934,3.89,8.677c4.49,11.528,6.536,23.946,8.482,36.224c0.249,1.745,0.548,3.489,0.848,5.238
		c0.699,4.487,1.347,8.979,1.995,13.52c-0.149-30.981,0.548-62.065,3.941-92.847c4.741-42.655,15.167-85.51,35.422-123.278
		c7.931-14.767,17.31-28.784,28.487-41.656c5.537-6.387,12.272-13.671,19.805-20.058c2.146-1.798,4.292-3.542,6.535-5.14
		c4.392-3.089,8.982-5.734,13.72-7.679c3.145-1.247,6.387-2.197,9.63-2.699c1.647-0.248,3.294-0.399,4.989-0.399
		c2.943-0.049,5.937,0.351,8.979,1.149c0.999,0.248,1.998,0.599,2.994,0.95c1.048,0.395,2.095,0.696,3.143,1.193
		c12.524,5.891,16.214,16.813,15.717,29.037c-0.251,6.987-1.898,14.368-3.993,21.452c-0.548,1.749-1.096,3.542-1.695,5.237
		c-2.295,6.889-4.889,13.321-6.884,18.563c-10.877,28.584-24.745,55.775-39.064,82.767c-14.319,26.943-29.137,53.68-41.858,81.422
		c-3.891,8.428-7.484,16.96-10.877,25.593c-1.644,4.287-3.242,8.628-4.789,12.969c-6.185,17.413-11.274,35.171-15.315,53.135
		c-0.999,4.536-1.946,9.028-2.794,13.569c1.596-5.237,3.242-10.426,4.941-15.615c7.932-24.394,16.414-48.643,25.542-72.589
		c15.866-41.261,35.223-83.069,67.252-114.401c6.136-5.934,12.672-11.474,19.608-16.463c1.995-1.447,3.99-2.845,5.988-4.141
		c8.031-5.286,17.861-9.428,27.639-8.132c1.396,0.2,2.643,0.502,3.842,0.848c0.948,0.302,1.795,0.648,2.594,1.048
		c0.897,0.399,1.744,0.799,2.495,1.349c2.943,2.042,4.889,4.887,5.885,8.278c0.4,1.198,0.648,2.495,0.799,3.795
		c1.695,13.169-5.737,31.332-9.73,40.96c-3.591,8.628-7.783,16.964-12.321,25.091c-1.547,2.699-3.094,5.34-4.69,7.985
		c-19.308,31.829-44.353,60.267-65.907,90.45c-3.442,4.838-6.785,9.73-10.127,14.616c4.741-5.486,9.729-10.826,14.918-15.961
		l0.449-0.448c15.515-15.118,32.876-28.292,52.233-38.07c0.899-0.448,1.797-0.897,2.694-1.345c0.948-0.448,1.898-0.896,2.845-1.35
		c1.895-0.896,3.89-1.695,5.885-2.343c3.993-1.247,8.083-1.793,12.224-0.75c0.799,0.205,1.547,0.502,2.246,0.799
		c1.445,0.652,2.743,1.447,3.939,2.446c1.149,0.999,2.197,2.198,3.045,3.445c0.748,1.096,1.347,2.294,1.796,3.542l0.499,1.296
		c0.149,0.546,0.299,1.047,0.448,1.598c0.351,1.545,0.499,3.089,0.599,4.638l0.049,0.648c0.2,5.34-0.996,10.626-2.943,15.766
		c-0.648,1.696-1.396,3.342-2.195,5.038c-2.346,4.94-5.288,9.632-8.083,13.871c-2.295,3.342-4.689,6.635-7.232,9.778
		c-2.546,3.191-5.189,6.236-7.983,9.228c-5.488,5.939-11.376,11.576-17.362,17.062c-13.82,12.526-27.99,24.599-42.058,36.872
		c-4.789,4.19-9.529,8.38-14.319,12.623c3.393,0.546,6.736,1.194,10.078,1.891c6.987,1.452,14.119,3.045,21.203,4.989
		c18.061,5.042,35.771,12.277,49.641,24.75c20.205,18.158,24.197,45.198,22.251,70.991c-1.895,26.095-5.788,52.136-9.379,78.08
		c-0.251,1.944-0.499,3.892-0.748,5.783c-5.988,44.706-12.624,89.354-20.455,133.757c-0.499,2.796-0.999,5.588-1.498,8.429
		c-1.644,8.935-3.242,17.812-4.989,26.742c-0.199,1.198-0.448,2.495-0.696,3.742l-0.251,1.349c-0.2,0.896-0.348,1.793-0.548,2.743
		c-5.637,29.135-11.873,58.173-18.857,87.059c4.039-3.596,8.231-7.084,12.422-10.48c2.046-1.647,4.041-3.24,6.136-4.789
		c1.547-1.199,3.142-2.392,4.74-3.591c3.291-2.392,6.585-4.74,9.978-7.035c1.944-1.296,3.89-2.592,5.837-3.839
		c3.69-2.397,7.483-4.643,11.274-6.787c11.676-6.636,23.949-12.224,36.77-16.414c2.545-0.848,5.089-1.599,7.683-2.295
		c1.946-0.551,3.941-1.048,5.936-1.549c2.595-0.595,5.189-1.194,7.783-1.642c1.547-0.302,3.094-0.6,4.641-0.853
		c0.497-0.098,0.947-0.146,1.447-0.195c2.295-0.351,4.638-0.702,6.984-0.95c2.343-0.248,4.69-0.497,7.033-0.648
		c2.346-0.2,4.692-0.351,7.035-0.4c4.141-0.2,8.283-0.2,12.472-0.049c1.947,0.049,3.842,0.146,5.737,0.248
		c-0.348-2.645-0.648-5.34-0.947-7.985c-2.543-21.5-5.237-43.001-8.28-64.404c-0.251-1.846-0.55-3.693-0.799-5.54
		c-0.151-0.897-0.251-1.793-0.4-2.646c-2.246-15.313-4.641-30.533-7.384-45.749l-0.149-0.794v-0.053
		c-8.282-46.095-21.055-96.886-0.351-140.837c1.895-4.093,4.042-8.083,6.587-12.024c6.833-10.728,15.963-19.605,26.689-26.392
		c10.728-6.738,22.802-10.928,34.974-14.119c2.395-0.648,4.789-1.247,7.184-1.798c-0.848-0.4-1.695-0.848-2.545-1.296
		c-2.643-1.296-5.286-2.592-7.932-3.893c-2.643-1.345-5.288-2.64-7.883-4.039c-5.237-2.695-10.378-5.588-15.367-8.731
		c-4.439-2.845-9.179-5.988-13.469-9.578c-1.099-0.896-2.146-1.798-3.143-2.797c-3.045-2.84-5.688-6.037-7.683-9.529
		c-1.099-1.944-1.898-4.136-2.295-6.431l-0.051-0.302c-0.2-1.296-0.348-2.592-0.299-3.888v-0.799l0.1-0.95l0.1-0.95
		c0.151-0.594,0.251-1.247,0.4-1.841l0.4-1.15c0.599-1.695,1.447-3.245,2.643-4.638c0.947-1.101,2.146-1.998,3.493-2.796
		l0.947-0.546c1.347-0.701,2.794-1.047,4.241-1.247c3.193-0.502,6.584-0.049,9.779,0.546c0.647,0.151,1.347,0.253,1.995,0.4
		c2.794,0.599,5.537,1.349,8.231,2.246c2.694,0.896,5.34,1.944,7.983,3.142c7.732,3.596,14.967,8.234,21.703,13.52
		c0.898,0.697,1.846,1.447,2.743,2.197c1.747,1.447,3.542,2.991,5.24,4.541c0.848,0.745,1.646,1.496,2.495,2.241
		c2.294,2.197,4.538,4.443,6.784,6.685c0.948,0.998,1.895,1.997,2.794,2.996c0.499,0.497,0.996,1.048,1.447,1.545
		c0.548,0.551,1.048,1.101,1.596,1.696c0.948,1.101,1.947,2.197,2.894,3.293c0.999,1.101,1.947,2.197,2.894,3.342
		c0.499,0.551,0.996,1.101,1.496,1.701c-3.491-6.539-7.084-12.974-10.726-19.357c-3.693-6.441-7.435-12.775-11.125-19.108
		c-2.643-4.492-5.237-9.033-7.883-13.574c-4.041-7.084-8.031-14.266-11.824-21.501c-0.848-1.695-1.795-3.396-2.643-5.091
		c-1.695-3.391-3.442-6.831-5.089-10.324c-0.799-1.749-1.647-3.493-2.446-5.291c-1.595-3.493-3.091-7.084-4.439-10.723
		c-1.347-3.596-2.545-7.284-3.493-10.977c-0.499-1.846-0.898-3.742-1.296-5.637c-0.2-1.101-0.4-2.294-0.551-3.542
		c-0.448-3.045-0.697-6.485-0.648-9.978v-0.302c0.051-1.544,0.1-3.094,0.3-4.638c0.049-0.501,0.149-0.999,0.248-1.496
		c0.151-0.999,0.251-1.949,0.499-2.942c0.1-0.551,0.251-1.15,0.451-1.696c0.198-0.853,0.548-1.598,0.848-2.446
		c1.844-4.741,4.838-8.731,9.727-10.679c2.845-1.145,5.539-1.096,8.083-0.297c2.545,0.745,4.889,2.295,7.084,4.039
		c0.699,0.599,1.398,1.247,2.046,1.846c0.699,0.648,1.347,1.301,1.946,1.944c2.395,2.495,4.638,5.091,6.733,7.785
		c1.398,1.846,2.745,3.644,3.993,5.54c1.096,1.593,2.144,3.191,3.143,4.789c1.247,1.993,2.294,4.087,3.442,6.134
		c0.548,1.048,1.199,2.046,1.696,3.094c-1.644-9.228-3.092-18.509-4.139-27.79c-0.4-3.542-0.75-7.133-1.048-10.723
		c-0.651-8.283-1.05-16.662-0.899-25.096c0-2.791,0.1-5.588,0.249-8.38c0.2-2.845,0.4-5.637,0.699-8.38
		c0.648-5.593,1.547-11.079,2.843-16.516c0.651-2.694,1.398-5.389,2.295-8.034c1.698-5.286,3.941-10.475,6.687-15.313
		c0.348-0.599,0.699-1.247,1.048-1.846c1.396-2.343,2.994-4.643,4.938-6.539c0.799-0.794,1.698-1.496,2.646-2.095
		c2.343-1.496,4.589-2.095,6.736-2.095l0.149,0.053c6.436,0.098,12.024,5.837,15.215,11.723c4.241,7.78,7.286,16.511,10.129,24.993
		c0.249,0.799,0.548,1.549,0.799,2.343c3.091,9.33,5.737,18.812,7.881,28.39c4.392,19.605,6.736,39.61,7.435,59.668
		c0.699,19.908-0.248,39.912-2.495,59.717c-0.2,1.646-0.448,3.293-0.648,4.94c0.248-0.599,0.548-1.198,0.797-1.798l0.599-1.345
		c0.599-1.296,1.199-2.597,1.846-3.893c0.6-1.247,1.196-2.543,1.847-3.79c4.638-9.379,9.778-18.66,15.515-27.688
		c1.347-2.149,2.743-4.293,4.19-6.387c2.945-4.39,6.036-8.682,9.281-12.872c5.187-6.636,10.675-13.018,16.563-18.957
		c6.884-6.933,14.268-13.271,22.202-18.811c1.944-1.393,3.99-2.743,6.037-4.039c7.583-4.789,16.463-10.178,25.542-11.123
		c1.098-0.151,2.146-0.151,3.245-0.102c4.19,0.151,8.18,1.599,11.074,4.342c1.398,1.344,2.546,2.991,3.343,4.989
		c0.399,0.999,0.699,2.095,0.898,3.244c0.1,0.697,0.149,1.393,0.2,2.095l0.048,0.696l-0.048,0.697l0.048,0.102l-0.048,0.794v0.351
		l-0.1,1.198l-0.151,1.15l-0.1,0.497l-0.098,0.546l-0.051,0.151l-0.1,0.599c-0.2,0.999-0.448,1.949-0.748,2.894
		c-0.748,2.543-1.795,4.989-2.843,7.386c-0.599,1.247-1.149,2.494-1.698,3.688c-1.895,3.991-3.941,7.883-6.136,11.679
		c-2.144,3.79-4.49,7.532-6.984,11.171c-1.995,2.996-4.241,5.788-6.436,8.682c-8.083,10.728-17.013,20.804-26.392,30.435
		c-3.99,4.088-7.983,8.078-12.073,12.122c3.043-1.998,6.136-3.893,9.279-5.739c1.647-0.999,3.393-1.846,5.089-2.791
		c1.698-0.901,3.342-1.895,5.089-2.797c1.598-0.794,3.242-1.593,4.889-2.392l0.3-0.151c1.596-0.697,3.242-1.447,4.889-2.198h0.1
		c1.695-0.696,3.442-1.393,5.189-2.041h0.049c1.447-0.551,2.945-1.048,4.392-1.55l0.897-0.297c7.086-2.246,14.37-3.596,21.754-3.596
		c3.143-0.048,6.436,0.151,9.578,0.848c1.596,0.351,3.143,0.853,4.638,1.452c1.447,0.648,2.845,1.393,4.141,2.392
		c3.342,2.495,5.34,6.036,5.588,9.827c0.1,1.846-0.2,3.693-0.848,5.539c-0.2,0.497-0.349,0.95-0.6,1.398l-0.548,0.994
		c-0.748,1.301-1.547,2.495-2.495,3.596c-0.599,0.697-1.247,1.393-1.947,2.046c-0.648,0.648-1.347,1.296-2.095,1.895l-0.999,0.794
		l-0.548,0.453c-0.499,0.448-1.048,0.794-1.596,1.193c-1.298,0.999-2.645,1.998-3.941,2.948c-0.699,0.497-1.347,0.945-1.946,1.345
		l-0.349,0.248c-3.242,2.397-6.536,4.643-9.929,6.835c-0.448,0.302-0.897,0.599-1.347,0.901c-2.943,1.841-5.837,3.742-8.831,5.534
		l-0.797,0.449c-20.156,12.224-41.459,22.65-61.515,34.972c21.403,2.845,42.056,10.728,59.22,24
		c10.076,7.834,18.758,17.613,23.895,29.437c4.692,10.674,6.587,22.1,7.186,33.676c0.049,0.497,0.049,1.048,0.1,1.496
		c0.098,2.095,0.149,4.239,0.149,6.333c0,8.731-0.699,17.461-1.547,26.144c-0.1,1.35-0.248,2.694-0.4,4.039
		c-0.049,0.95-0.149,1.846-0.248,2.748c-0.051,0.497-0.1,1.048-0.151,1.545c-0.149,1.398-0.297,2.743-0.497,4.092
		c-1.247,11.625-2.845,23.147-4.641,34.675c-0.248,1.895-0.548,3.688-0.899,5.583c-0.399,2.699-0.848,5.389-1.247,8.083
		l-0.048,0.054c-0.848,5.086-1.696,10.124-2.594,15.215c-4.29,24.394-9.23,48.692-14.519,72.837
		c-5.189,23.6-10.775,47.147-16.562,70.543c-0.151,0.501-0.251,1.052-0.4,1.549c-1.198,4.94-2.446,9.929-3.742,14.918
		c-0.2,0.745-0.4,1.545-0.599,2.344c-0.448,1.895-0.948,3.79-1.447,5.686c-1.596,6.49-3.291,13.023-4.989,19.508
		c-3.591,13.72-7.184,27.44-10.925,41.11l-0.248,0.999c-0.748,2.694-1.498,5.335-2.246,7.98c-2.195,8.034-4.39,16.063-6.684,24
		c2.244,2.343,4.49,4.638,6.736,6.884c0.548,0.6,1.147,1.199,1.744,1.744c0.799,0.848,1.646,1.696,2.494,2.494
		c2.397,2.348,4.84,4.692,7.286,6.987c12.222,11.323,26.092,21.603,42.255,26.339c13.52,3.995,27.391,5.14,41.31,4.692l1.296-0.049
		c0.499-0.053,0.947-0.053,1.447-0.102c4.29-0.248,8.631-0.595,12.921-1.048c33.975-3.839,67.302-15.712,96.588-33.223
		c2.044-1.247,4.09-2.495,6.085-3.795c1.299-0.799,2.595-1.647,3.893-2.543c2.195-1.398,4.338-2.894,6.434-4.389
		c14.419-10.226,27.739-22.002,39.663-35.026l-1.895-5.384c-3.393-9.481-6.685-18.962-9.93-28.438
		c-6.784-19.659-13.269-39.464-19.505-59.269c-0.2-0.551-0.351-1.15-0.499-1.701c-0.948-2.991-1.895-5.934-2.845-8.93
		c-8.431-26.991-16.463-54.129-24.195-81.266c-0.948-3.196-1.847-6.387-2.745-9.583c-5.189-18.509-10.278-37.018-15.267-55.575
		c-5.637-21.106-11.125-42.207-16.512-63.361c-4.141-16.112-8.182-32.277-12.224-48.443c-0.249-1.047-0.499-2.095-0.748-3.094
		c-0.699-2.943-1.447-5.837-2.146-8.779c-1.148-4.59-2.295-9.179-3.443-13.822c-3.042-12.419-6.088-24.794-9.079-37.213
		c-4.789-19.761-9.53-39.513-14.319-59.274c-0.151-0.497-0.251-0.994-0.4-1.496c-0.499-2.095-0.999-4.239-1.447-6.334
		c-0.248-0.999-0.499-2.095-0.748-3.094c-3.094-13.023-5.937-26.095-8.283-39.215c-0.1-0.55-0.2-1.145-0.3-1.695
		c-0.199-1.199-0.399-2.392-0.597-3.591c-0.351-2.095-0.699-4.19-0.999-6.339c-1.846-11.922-2.994-24.043-2.346-36.019
		c0.899-16.516,5.54-31.43,15.417-44.804c8.531-11.522,20.105-21.052,31.929-28.984c12.772-8.628,26.692-15.416,41.26-20.307
		c-0.6-0.648-1.199-1.193-1.796-1.793c-14.918-14.47-30.034-28.838-44.701-43.605c-12.723-12.872-24.896-26.543-34.226-42.158
		c-7.732-12.969-15.963-29.783-11.674-45.3c1.895-6.782,7.084-12.473,14.119-13.92c9.33-1.944,18.309,3.445,26.041,7.883
		c28.288,16.117,52.285,39.064,72.241,64.706c-3.442-5.685-6.933-11.323-10.475-16.911c-29.637-46.548-66.504-90.05-85.212-142.683
		c-6.236-17.564-21.003-60.019,9.878-62.416c10.974-0.848,21.703,4.341,30.334,10.68c9.878,7.235,19.057,15.512,27.34,24.496
		c33.924,36.867,53.081,84.613,68.299,131.609c8.78,27.24,16.813,54.777,24.246,82.47c1.595,5.885,3.094,11.771,4.589,17.71
		c-5.637-40.813-16.163-80.921-31.481-119.39c-25.193-63.41-59.717-122.878-80.62-187.984c-5.089-15.815-14.37-41.31-10.429-60.516
		c0.351-1.598,0.75-3.191,1.299-4.692c1.048-3.04,2.543-5.837,4.49-8.38c0.499-0.599,0.999-1.198,1.595-1.793
		c2.794-2.948,6.387-5.442,10.926-7.288c31.083-12.57,58.872,18.709,75.933,40.565c41.659,53.48,57.773,121.178,61.563,187.735
		c1.947,34.572,0.948,69.246-1.047,103.819c0.999-4.989,1.946-9.978,3.045-14.967c3.291-15.367,6.336-31.279,12.821-45.7
		c5.438-12.024,14.916-27.79,29.335-29.934c17.613-2.592,20.904,18.309,22.002,31.181c2.994,34.377-10.329,67.502-24.597,97.987
		c-2.095,4.487-4.341,8.877-6.485,13.32c5.237-3.791,10.974-6.938,17.162-9.179c8.879-3.197,21.304-5.788,26.492,4.535
		c4.341,8.633,0.049,19.011-3.593,27.143c3.593,0.648,7.184,1.344,10.726,2.144c20.506,4.54,40.662,11.576,56.876,24.696
		c23.598,19.059,29.634,48.993,28.986,77.88c-0.599,29.184-3.393,58.518-5.839,87.653c-0.149,2.198-0.397,4.341-0.548,6.539
		c-3.99,50.187-8.831,100.33-14.916,150.366c-0.4,3.143-0.799,6.285-1.198,9.481c-1.247,10.027-2.543,20.102-3.942,30.134
		c-0.2,1.398-0.399,2.791-0.599,4.19c-0.2,1.545-0.397,3.045-0.648,4.638c-0.148,0.999-0.299,1.944-0.399,2.942
		c-4.09,28.887-8.68,57.773-13.868,86.514c6.636-2.699,13.369-5.091,20.204-7.084l0.848-0.151
		c5.739-1.647,11.525-3.094,17.413-4.244c7.433-1.447,14.967-2.543,22.599-3.089c2.546-0.151,5.089-0.302,7.635-0.351
		c4.49-0.151,8.979-0.102,13.52,0.098c2.543,0.151,5.089,0.302,7.632,0.55c2.146,0.2,4.342,0.4,6.487,0.697
		c0.697,0.048,1.348,0.151,2.044,0.253c2.197,0.297,4.392,0.643,6.587,0.994c10.027,1.695,19.856,4.141,29.435,7.337
		c21.503,7.23,41.507,18.255,58.521,32.725c-0.848-0.696-1.596-1.447-2.446-2.143c1.347-20.556,2.545-41.111,3.444-61.715
		c0.149-3.444,0.297-6.938,0.448-10.377c0.748-19.459,1.296-38.865,1.496-58.324v-1.096c0.499-59.02-3.442-124.876,32.38-174.518
		c3.293-4.535,6.935-8.979,10.974-13.266c10.928-11.727,24.297-20.604,39.215-26.495c14.816-5.788,30.731-8.18,46.548-9.33
		c3.091-0.248,6.236-0.448,9.328-0.546c-0.947-0.75-1.895-1.447-2.894-2.197c-0.697-0.551-1.445-1.096-2.195-1.647
		c-11.125-8.38-22.299-16.711-32.528-26.241c-3.591-3.391-7.384-7.084-10.974-10.977c-2.346-2.592-4.641-5.34-6.687-8.18
		c-3.043-4.293-5.637-8.784-7.284-13.622c-0.448-1.344-0.797-2.694-1.048-4.141c-0.2-1.393-0.348-2.889-0.299-4.341
		c0-1.792,0.151-3.591,0.55-5.286l0.049-0.297l0.151-0.701l0.2-0.745l0.1-0.4l0.297-0.848l0.1-0.302
		c0.3-0.745,0.599-1.447,0.899-2.144l0.448-0.848l0.3-0.551c0.548-0.945,1.198-1.895,1.946-2.743
		c1.447-1.695,3.194-3.142,5.289-4.19c1.048-0.551,2.195-0.999,3.391-1.301c0.85-0.249,1.698-0.395,2.545-0.497
		c5.937-0.648,11.973,1.647,17.362,3.893c6.636,2.743,12.921,6.236,18.808,10.427c2.195,1.598,4.341,3.191,6.385,4.94
		c2.097,1.695,4.141,3.439,6.088,5.286c3.942,3.644,7.683,7.532,11.274,11.576c0.451,0.546,0.95,1.096,1.398,1.647
		c0.499,0.599,0.996,1.096,1.447,1.695c1.895,2.246,3.691,4.541,5.488,6.884c0.848,1.096,1.696,2.197,2.495,3.342
		c2.395,3.245,4.638,6.539,6.884,9.881l0.699,1.096c0.697,1.096,1.396,2.144,2.095,3.245c0.497,0.745,0.996,1.545,1.496,2.343
		c0.448,0.799,0.947,1.545,1.447,2.343c0.499,0.799,0.947,1.599,1.447,2.397c0.499,0.799,0.948,1.593,1.447,2.392
		c0.599,0.999,1.147,1.998,1.747,2.996c0.348,0.594,0.696,1.193,1.047,1.793c0.499,0.799,0.948,1.598,1.396,2.446
		c-0.548-1.798-1.147-3.591-1.695-5.389c-3.693-11.474-7.635-22.898-11.674-34.222c-1.598-4.394-3.145-8.731-4.692-13.076
		c-6.485-18.207-12.921-36.365-18.309-54.977c-5.289-18.358-10.577-37.714-10.726-57.023c-0.049-0.848,0-1.798,0.051-2.694
		c0.149-6.139,0.996-13.52,3.092-20.404c0.599-1.847,1.198-3.596,1.995-5.291c0.251-0.648,0.55-1.344,0.899-1.993
		c0.848-1.749,1.847-3.342,2.894-4.892c3.242-4.492,7.583-7.78,13.272-8.93c1.247-0.249,2.495-0.346,3.642-0.297
		c1.646,0.097,3.191,0.497,4.638,1.096c1.647,0.6,3.245,1.447,4.69,2.543c1.797,1.398,3.444,3.045,4.94,4.838
		c1.496,1.798,2.843,3.742,4.09,5.642c5.289,8.029,9.481,16.711,12.923,25.641c1.596,4.141,2.991,8.38,4.239,12.624
		c0.151-16.365,0.799-32.682,2.545-48.896c1.147-10.377,2.595-20.901,4.69-31.279c0.699-3.44,1.496-6.933,2.346-10.329
		c1.695-6.884,3.742-13.617,6.136-20.204c2.443-6.583,5.337-13.023,8.679-19.157c2.546-4.638,5.488-9.028,8.682-13.223
		c1.047-1.447,2.043-2.889,3.191-4.239c0.451-0.55,0.95-1.047,1.447-1.598c1.398-1.647,2.846-3.24,4.492-4.687
		c2.144-1.949,4.539-3.591,7.233-4.643c1.596-0.648,3.094-1.048,4.59-1.193c0.699-0.054,1.447-0.103,2.146-0.054
		c0.699,0.054,1.396,0.102,2.047,0.253c0.696,0.146,1.347,0.297,1.944,0.546c5.739,1.998,10.078,7.483,12.772,13.52
		c0.599,1.35,1.147,2.695,1.547,4.044c1.895,5.837,3.293,11.922,4.389,18.061c1.099,6.134,1.947,12.321,2.794,18.358
		c1.647,12.272,2.745,24.594,3.094,36.969c0.248,6.285,0.3,12.57,0.2,18.855c-0.4,24.297-3.043,48.497-7.535,72.341
		c-3.642,19.508-8.48,38.816-14.316,57.724c-0.599,1.998-1.299,3.99-1.998,5.988c0.899-1.198,1.698-2.392,2.545-3.542
		c0.999-1.496,2.047-2.943,3.143-4.39l0.848-1.15c0.75-1.047,1.547-2.095,2.346-3.143c3.591-4.838,7.383-9.578,11.274-14.319
		c3.893-4.687,7.883-9.33,12.075-13.87c18.658-20.453,40.01-38.914,63.907-52.58c2.694-1.501,5.34-2.943,8.083-4.341
		c5.438-2.797,10.977-5.34,16.663-7.586c3.593-1.393,7.435-2.894,11.376-4.19c1.747-0.546,3.542-1.149,5.389-1.598
		c4.241-1.145,8.58-1.944,12.821-2.095l0.3-0.049c1.496,0,2.943,0,4.341,0.098c6.185,0.501,11.824,3.098,15.515,7.288
		c1.496,1.647,2.643,3.542,3.394,5.734c0.748,2.047,1.196,4.244,1.147,6.738c-0.051,0.897-0.1,1.793-0.251,2.641l-0.148,1.047
		l-0.151,0.702v0.151l-0.149,0.697l-0.149,0.697c-0.151,0.497-0.251,0.95-0.4,1.447c-0.151,0.502-0.299,0.95-0.499,1.398
		l-0.151,0.399l-0.297,0.848l-0.351,0.896c-0.248,0.6-0.548,1.199-0.848,1.798c-0.248,0.55-0.499,1.096-0.748,1.647
		c-2.346,4.487-5.338,8.731-8.231,12.623c-6.487,8.98-13.72,17.359-21.503,25.194c-12.025,12.121-25.196,22.845-38.864,32.925
		c-9.379,6.933-19.009,13.569-28.687,20.058c4.241-1.701,8.48-3.343,12.821-4.892c4.541-1.647,9.181-3.191,13.871-4.541
		c2.195-0.648,4.389-1.296,6.635-1.846l0.349-0.097c1.096-0.248,2.244-0.551,3.342-0.799c1.099-0.248,2.195-0.501,3.293-0.75
		l0.1-0.048c1.047-0.2,2.095-0.4,3.142-0.599c1.247-0.249,2.495-0.497,3.791-0.745v0.048c1.347-0.248,2.694-0.4,4.042-0.599
		c0.999-0.151,1.995-0.351,2.994-0.448c2.294-0.302,4.64-0.497,6.935-0.648c2.343-0.102,4.638-0.151,6.984-0.151
		c4.641,0.097,9.23,0.551,13.819,1.398l0.499,0.097c1.595,0.302,3.192,0.648,4.789,1.096c6.085,1.598,12.122,4.244,16.363,8.882
		C1981.628,836.555,1982.875,843.337,1980.281,849.427z"/>
	<path style="fill:#668942;" d="M590.293,836.92c-1.364-6.168-5.729-11.483-11.966-13.121c-8.243-2.168-16.514,2.193-23.666,5.793
		c-26.039,13.111-48.553,32.462-67.607,54.44c3.347-4.897,6.723-9.773,10.168-14.602c28.682-40.238,63.697-77.393,82.891-123.536
		c6.412-15.415,21.608-52.677-5.864-56.272c-9.8-1.281-19.612,2.845-27.644,8.117c-9.167,6.012-17.751,12.969-25.588,20.628
		c-32.056,31.347-51.427,73.12-67.244,114.411c-9.169,23.937-17.64,48.2-25.586,72.569c-1.691,5.189-3.325,10.392-4.923,15.61
		c6.935-36.209,18.268-71.551,33.754-105.236c25.5-55.478,59.186-106.995,80.952-164.218c7.953-20.906,25.437-60.896-3.138-74.26
		c-27.193-12.716-53.546,13.92-69.795,32.638c-39.793,45.846-57.368,105.622-63.899,164.939c-3.391,30.801-4.127,61.88-3.968,92.861
		c-0.665-4.516-1.284-9.038-2.009-13.539c-2.242-13.9-4.176-28.263-9.315-41.452c-4.288-11.006-12.036-25.559-24.794-28.136
		c-15.625-3.152-19.551,15.386-21.159,26.831c-4.302,30.577,6.064,60.818,17.379,88.764c1.661,4.107,3.44,8.156,5.174,12.229
		c-4.529-3.639-9.474-6.738-14.921-9.028c-7.768-3.269-18.748-6.188-23.878,2.806c-4.39,7.693-0.806,17.408,2.117,24.911
		c6.784,17.403,16.906,33.33,29.766,46.889c14.694,15.493,32.696,27.424,52.596,35.103c0.456,0.175,0.889,0.277,1.303,0.331
		c1.321,2.319,4.219,3.937,7.323,2.49c15.919-7.42,30.102-17.812,43.578-28.979c14.529-12.039,28.565-24.687,42.774-37.101
		c14.032-12.258,28.236-24.355,42.026-36.891c12-10.904,23.525-22.538,32.577-36.063
		C585.236,865.597,593.409,850.981,590.293,836.92z"/>
	<path style="fill:#AB5017;" d="M455.456,1113.166c-17.99,3.035-36.192,4.833-54.428,5.223
		c-51.217,1.057-102.54-8.643-149.842-28.185c-0.351-2.963-0.704-5.963-0.987-8.96c6.173,2.646,12.417,5.116,18.731,7.406
		c58.73,21.271,122.786,27.337,184.41,16.862C458.348,1104.631,460.499,1112.285,455.456,1113.166z"/>
	<path style="fill:#AB5017;" d="M361.698,1157.049c-34.638-6.071-69.066-13.159-103.246-21.339
		c-0.353-1.905-0.704-3.849-1.023-5.754c-0.175-0.916-0.351-1.866-0.492-2.786c35.378,8.575,71.039,15.946,106.878,22.226
		C368.823,1150.277,366.673,1157.931,361.698,1157.049z"/>
	<path style="fill:#AB5017;" d="M418.947,1234.052c-46.138,8.604-93.088,12.272-139.93,10.826c-0.495-2.646-1.023-5.291-1.518-7.937
		c46.667,1.52,93.404-1.973,139.331-10.543C421.839,1225.477,423.956,1233.097,418.947,1234.052z"/>
	<path style="fill:#AB5017;" d="M554.892,1317.827c-0.211,1.232-0.46,2.504-0.706,3.737c-0.246,1.374-0.528,2.714-0.811,4.093
		c-53.156,1.871-107.76,24.55-157.708-2.47c-4.48-2.436-0.458-9.276,4.022-6.845c28.007,15.172,61.268,13.301,91.816,8.999
		C512.527,1322.412,533.692,1318.461,554.892,1317.827z"/>
	<path style="fill:#AB5017;" d="M561.346,1282.656c-0.492,2.826-0.987,5.608-1.481,8.433c-38.024,9.486-77.673,11.673-116.79,6.207
		c-5.043-0.707-2.892-8.36,2.08-7.654C483.851,1295.041,523.568,1292.571,561.346,1282.656z"/>
	<path style="fill:#AB5017;" d="M513.417,1432.092c-2.543,2.441-5.038,4.887-7.581,7.381c-34.574-3.143-68.798-9.978-101.926-20.356
		c-4.889-1.496-2.794-9.179,2.095-7.63C440.979,1422.459,476.998,1429.349,513.417,1432.092z"/>
	<path style="fill:#AB5017;" d="M440.994,1493.027c-35.803,0.813-72.416,1.413-108.113-3.031c-0.706-2.719-1.411-5.432-2.08-8.151
		c36.365,4.833,73.826,4.058,110.194,3.245C446.107,1484.949,446.072,1492.885,440.994,1493.027z"/>
	<path style="fill:#AB5017;" d="M1239.459,914.425c-19.89,4.438-40.088,7.517-60.409,9.023
		c-57.074,4.195-114.898-3.606-168.815-22.621c-0.568-3.284-1.138-6.606-1.63-9.934c7.042,2.587,14.153,4.974,21.33,7.162
		c66.769,20.268,138.583,23.269,206.712,7.956C1242.183,904.73,1245.033,913.144,1239.459,914.425z"/>
	<path style="fill:#AB5017;" d="M1137.45,968.89c-38.999-4.726-77.819-10.612-116.43-17.729c-0.507-2.105-1.013-4.249-1.481-6.354
		c-0.248-1.013-0.502-2.065-0.713-3.079c39.973,7.479,80.187,13.603,120.535,18.499
		C1145.002,960.919,1143.051,969.582,1137.45,968.89z"/>
	<path style="fill:#AB5017;" d="M1205.847,1051.423c-50.962,12.317-103.12,19.172-155.461,20.317
		c-0.706-2.923-1.454-5.842-2.161-8.765c52.149-1.057,104.082-7.703,154.81-19.966
		C1208.568,1041.688,1211.379,1050.063,1205.847,1051.423z"/>
	<path style="fill:#AB5017;" d="M1362.43,1136.874c-0.163,1.389-0.365,2.821-0.568,4.214c-0.195,1.549-0.431,3.06-0.665,4.614
		c-59.188,5.213-118.766,33.729-176.073,6.524c-5.143-2.451-1.06-10.319,4.082-7.868c32.136,15.274,69.133,11.23,102.954,4.628
		C1315.442,1144.484,1338.818,1138.832,1362.43,1136.874z"/>
	<path style="fill:#AB5017;" d="M1367.56,1097.264c-0.385,3.177-0.772,6.314-1.157,9.491
		c-41.861,12.823-85.96,17.598-129.918,13.797c-5.668-0.487-3.72-9.155,1.871-8.658
		C1281.839,1115.636,1326.002,1110.545,1367.56,1097.264z"/>
	<path style="fill:#AB5017;" d="M1293.447,1265.306c-3.542,2.548-6.984,5.242-10.378,7.985
		c-28.036-2.694-55.827-7.532-83.115-14.519c-5.539-1.398-3.642-10.129,1.895-8.682
		C1231.932,1257.823,1262.616,1262.866,1293.447,1265.306z"/>
	<path style="fill:#AB5017;" d="M1228.641,1331.41c-2.195,3.094-4.341,6.188-6.436,9.33c-32.329,2.198-65.057,3.596-97.285,1.247
		c-0.948-2.991-1.895-5.934-2.845-8.93C1157.396,1335.854,1193.367,1333.905,1228.641,1331.41z"/>
	<path style="fill:#F49A4F;" d="M965.415,928.237c-5.135-3.864-12.112-4.726-18.351-4.697c-7.403,0.015-14.682,1.359-21.742,3.61
		c-1.774,0.565-3.54,1.193-5.316,1.846l-0.024-0.01c-1.751,0.658-3.483,1.355-5.193,2.056l-0.092,0.025
		c-1.659,0.726-3.291,1.457-4.923,2.188l-0.275,0.132c-1.649,0.779-3.284,1.598-4.919,2.412c-3.456,1.768-6.833,3.62-10.158,5.573
		c-3.121,1.856-6.224,3.752-9.269,5.72c16.251-15.995,32.092-32.365,44.916-51.245c4.936-7.264,9.332-14.864,13.084-22.811
		c1.673-3.488,3.413-7.235,4.558-11.084c0.282-0.955,0.541-1.92,0.75-2.904l0.151-0.745l0.176-1.053l0.151-1.145l0.112-1.189
		l0.032-1.13l-0.005-0.146c0.017-0.449,0.01-0.911-0.022-1.379c-0.036-0.696-0.097-1.403-0.219-2.105
		c-1.491-9.189-9.905-13.388-18.519-12.467c-9.091,0.984-17.978,6.354-25.569,11.128c-32.816,20.711-56.803,54.455-73.79,88.754
		c-0.621,1.267-1.252,2.553-1.849,3.825c-0.631,1.291-1.23,2.563-1.81,3.868c-0.482,1.028-0.945,2.09-1.437,3.143
		c0.224-1.661,0.471-3.318,0.658-4.964c4.565-39.678,3.79-80.316-4.95-119.376c-2.122-9.583-4.772-19.045-7.869-28.375
		c-3.064-9.179-6.283-18.811-10.918-27.352c-4.317-7.912-12.889-15.512-22.082-9.681c-3.881,2.47-6.443,6.529-8.655,10.48
		c-2.741,4.877-4.977,10.022-6.706,15.347c-6.855,21.203-6.867,44.37-5.155,66.377c1.013,12.93,2.896,25.739,5.196,38.504
		c-1.603-3.113-3.299-6.207-5.177-9.189c-3.998-6.485-8.514-12.638-13.837-18.139c-4.962-5.14-11.571-10.558-19.191-7.537
		c-5.698,2.28-8.936,7.269-10.575,13.14c-0.173,0.565-0.321,1.14-0.436,1.7c-0.343,1.447-0.58,2.904-0.748,4.419
		c-0.733,6.534-0.095,13.393,0.911,18.494c2.952,15.021,9.925,29.335,16.76,42.918c6.911,13.69,14.604,26.952,22.341,40.17
		c7.418,12.672,14.926,25.408,21.842,38.446c-0.482-0.57-0.962-1.14-1.479-1.696c-0.948-1.11-1.893-2.222-2.875-3.313
		c-0.972-1.12-1.954-2.212-2.933-3.303c-1.008-1.101-1.998-2.173-3.013-3.245c-0.923-1.018-1.863-1.983-2.821-2.982
		c-2.217-2.275-4.475-4.512-6.787-6.68c-0.809-0.774-1.627-1.525-2.453-2.246c-1.729-1.559-3.493-3.103-5.281-4.57
		c-0.904-0.75-1.817-1.476-2.738-2.178c-6.738-5.291-13.941-9.92-21.712-13.52c-5.199-2.397-10.607-4.214-16.217-5.388
		c-5.16-1.072-11.043-2.115-16.012,0.282c-3.586,1.72-5.875,4.619-7.079,7.985l-0.366,1.184c-0.156,0.604-0.29,1.213-0.395,1.832
		l-0.139,0.95l-0.071,0.916l-0.034,0.814c-0.039,1.388,0.085,2.806,0.353,4.214c0.409,2.29,1.198,4.483,2.307,6.421
		c5.342,9.364,15.398,16.239,24.292,21.9c9.966,6.329,20.624,11.444,31.184,16.672c0.853,0.424,1.715,0.867,2.57,1.296
		c-2.434,0.546-4.819,1.141-7.201,1.788c-12.173,3.191-24.246,7.381-34.974,14.119c-10.726,6.787-19.856,15.664-26.689,26.392
		c-2.545,3.941-4.692,7.932-6.587,12.024c-20.704,43.951-7.932,94.742,0.351,140.837v0.053l0.149,0.794
		c2.743,15.215,5.138,30.436,7.384,45.749c0.4,2.694,0.799,5.443,1.198,8.185c3.043,21.403,5.737,42.903,8.28,64.404
		c0.3,2.645,0.599,5.34,0.947,7.985v0.102l0.4-0.102c13.021,0.799,25.944,2.894,38.565,6.236
		c36.719,9.778,70.197,28.638,99.979,51.936c9.179,7.181,17.661,14.967,25.793,23.099c2.994,2.991,5.936,5.988,8.83,9.028
		c8.282,8.633,16.314,17.461,24.597,26.095c2.294-7.985,4.49-16.014,6.684-24.048c0.748-2.646,1.498-5.286,2.246-7.98l0.248-0.999
		c3.742-13.671,7.335-27.391,10.925-41.11c1.698-6.485,3.393-13.018,4.989-19.508c0.75-2.69,1.398-5.389,2.047-8.029
		c1.296-4.989,2.543-9.978,3.742-14.918c0.149-0.497,0.248-1.048,0.4-1.549c5.788-23.396,11.374-46.942,16.562-70.543
		c5.289-24.146,10.229-48.443,14.519-72.837c0.898-5.091,1.747-10.129,2.594-15.215v-0.054c0.448-2.694,0.896-5.384,1.296-8.083
		c0.351-1.895,0.651-3.688,0.899-5.583c1.796-11.528,3.394-23.05,4.641-34.675c0.2-1.349,0.348-2.694,0.497-4.092
		c0.1-1.398,0.3-2.841,0.4-4.293c0.151-1.344,0.299-2.689,0.4-4.039c1.047-10.777,1.846-21.652,1.398-32.477
		c-0.051-0.448-0.051-0.999-0.1-1.496c-0.599-11.576-2.495-23.001-7.186-33.676c-5.138-11.825-13.819-21.603-23.895-29.437
		c-17.164-13.272-37.817-21.154-59.22-24l-0.122,0.068c27.235-16.682,56.584-29.958,82.55-48.74l0.346-0.248
		c0.612-0.439,1.26-0.892,1.917-1.369c1.866-1.306,3.773-2.656,5.583-4.122c0.546-0.405,1.04-0.828,1.535-1.252
		c2.911-2.475,5.461-5.218,7.096-8.521C972.592,938.937,970.801,932.271,965.415,928.237z"/>
	<path style="fill:#51702D;" d="M969.586,945.036c-1.634,3.299-4.185,6.046-7.098,8.521c-0.492,0.424-0.987,0.848-1.533,1.252
		c-1.81,1.466-3.717,2.816-5.583,4.122c-0.658,0.477-1.306,0.93-1.92,1.369l-0.346,0.248c-26.07,18.86-55.556,32.161-82.886,48.945
		c-24.623,15.118-48.579,34.134-62.418,60.019c-0.019,0.936-0.049,1.895-0.068,2.831l-0.022,0.224
		c-0.163,3.255-3.6,4.083-5.914,2.801c-1.613-0.122-3.101-0.994-3.617-2.348c-0.59-0.667-0.996-1.53-1.033-2.626l-0.059-0.565
		l-0.031-0.068c-11.844-20.194-33.69-31.824-54.053-41.919c-10.56-5.228-21.218-10.344-31.184-16.672
		c-8.894-5.661-18.952-12.536-24.294-21.9c-1.106-1.939-1.895-4.131-2.307-6.421c-0.265-1.408-0.39-2.826-0.353-4.209l0.034-0.819
		l0.071-0.916l0.141-0.95c0.105-0.619,0.237-1.233,0.395-1.832l0.366-1.184c1.203-3.372,3.493-6.266,7.079-7.985
		c4.97-2.397,10.853-1.354,16.012-0.282c5.61,1.174,11.016,2.991,16.217,5.388c7.771,3.601,14.974,8.229,21.712,13.52
		c0.921,0.701,1.832,1.427,2.736,2.178c1.79,1.467,3.554,3.011,5.281,4.57c0.829,0.726,1.647,1.472,2.456,2.246
		c2.312,2.168,4.57,4.405,6.787,6.68c0.957,0.999,1.898,1.964,2.821,2.977c1.016,1.077,2.005,2.149,3.011,3.25
		c0.982,1.091,1.964,2.183,2.935,3.303c0.982,1.091,1.927,2.202,2.875,3.313c0.516,0.556,0.996,1.126,1.479,1.696
		c-6.916-13.038-14.424-25.773-21.842-38.446c-7.736-13.218-15.429-26.475-22.341-40.17c-6.835-13.583-13.81-27.897-16.76-42.918
		c-1.006-5.101-1.644-11.956-0.911-18.494c0.168-1.51,0.402-2.972,0.748-4.419c0.115-0.56,0.263-1.135,0.436-1.7
		c1.639-5.871,4.877-10.86,10.575-13.14c7.62-3.02,14.229,2.397,19.191,7.537c5.323,5.5,9.839,11.654,13.837,18.139
		c1.878,2.982,3.574,6.076,5.177,9.189c-2.3-12.76-4.183-25.573-5.196-38.504c-1.713-22.007-1.701-45.173,5.155-66.377
		c1.729-5.325,3.966-10.47,6.706-15.347c2.212-3.951,4.772-8.01,8.655-10.48c9.193-5.832,17.763,1.769,22.082,9.681
		c4.636,8.541,7.854,18.173,10.918,27.352c3.096,9.33,5.747,18.792,7.869,28.375c8.74,39.06,9.515,79.698,4.95,119.376
		c-0.188,1.647-0.436,3.303-0.658,4.964c0.49-1.052,0.955-2.114,1.437-3.143c0.58-1.306,1.176-2.577,1.81-3.868
		c0.597-1.272,1.228-2.558,1.849-3.825c16.987-34.299,40.974-68.043,73.79-88.754c7.591-4.774,16.478-10.144,25.569-11.128
		c8.614-0.925,17.026,3.279,18.519,12.467c0.12,0.702,0.183,1.408,0.219,2.105c0.031,0.473,0.039,0.93,0.022,1.379l0.005,0.146
		l-0.032,1.13l-0.112,1.189l-0.151,1.145l-0.176,1.053l-0.151,0.745c-0.209,0.984-0.468,1.949-0.752,2.904
		c-1.142,3.849-2.882,7.6-4.555,11.084c-3.752,7.946-8.148,15.547-13.084,22.811c-12.823,18.879-28.665,35.25-44.916,51.245
		c3.045-1.968,6.148-3.864,9.269-5.72c3.325-1.954,6.699-3.805,10.158-5.573c1.635-0.814,3.267-1.632,4.919-2.412l0.275-0.132
		c1.632-0.731,3.264-1.462,4.921-2.188l0.095-0.02c1.708-0.706,3.442-1.403,5.192-2.061l0.026,0.005
		c1.774-0.648,3.54-1.277,5.316-1.841c7.057-2.251,14.336-3.596,21.742-3.61c6.236-0.029,13.215,0.833,18.348,4.692
		C970.801,932.271,972.592,938.937,969.586,945.036z"/>
	<path style="fill:#BF651F;" d="M958.87,1138.633c-24.631,4.58-49.544,7.225-74.66,8.287c-32.893,1.398-65.831,0.443-98.725-0.643
		c-5.196-0.17-4.585-8.209,0.611-8.039c18.326,0.599,36.662,1.174,54.989,1.286c32.73,0.258,65.517-0.833,97.904-5.613
		c6.931-1.013,13.849-2.227,20.711-3.605c-0.112,1.359-0.253,2.709-0.392,4.058C959.167,1135.797,959.001,1137.225,958.87,1138.633z
		"/>
	<path style="fill:#BF651F;" d="M951.576,1191.081l-0.01,0.024c-41.016,2.382-82.155,2.553-123.18,0.477
		c-5.218-0.263-4.572-8.317,0.587-8.044c12.572,0.633,25.125,1.082,37.705,1.291c28.762,0.497,57.495-0.132,86.191-1.857
		C952.472,1185.687,952.024,1188.381,951.576,1191.081z"/>
	<path style="fill:#BF651F;" d="M825.804,1272.849c-11.008,3.069-22.212,5.325-33.53,6.86c-37.532,5.028-75.49,2.446-113.097-0.638
		c-0.368-2.729-0.76-5.472-1.162-8.185c9.768,0.804,19.546,1.578,29.354,2.192c39.135,2.49,78.884,2.534,116.935-8.19
		C829.319,1263.479,830.761,1271.445,825.804,1272.849z"/>
	<path style="fill:#BF651F;" d="M821.389,1318.041c-16.514,4.19-33.028,8.332-49.493,12.473
		c-27.688,6.987-55.427,14.022-83.066,20.955l-0.4,0.102v-0.102c-0.348-2.645-0.648-5.34-0.947-7.985
		c44.104-11.123,88.255-22.246,132.408-33.374C824.932,1308.863,826.378,1316.794,821.389,1318.041z"/>
	<path style="fill:#BF651F;" d="M911.713,1374.217c-42.034-0.604-84.043-3.118-125.843-7.581c-5.179-0.536-4.568-8.575,0.587-8.049
		c13.729,1.471,27.454,2.714,41.217,3.771c28.623,2.163,57.335,3.439,86.055,3.81
		C913.084,1368.852,912.417,1371.527,911.713,1374.217z"/>
	<path style="fill:#BF651F;" d="M895.525,1435.833c-0.748,2.694-1.498,5.335-2.246,7.98c-10.426-0.4-20.852-1.048-31.281-2.047
		c-2.894-3.04-5.837-6.036-8.83-9.028C867.238,1434.338,881.355,1435.385,895.525,1435.833z"/>
	<path style="fill:#F49A4F;" d="M1976.917,831.415c-5.457-5.978-13.893-8.667-21.622-10.085c-9.169-1.705-18.494-1.739-27.759-0.594
		c-2.326,0.287-4.66,0.648-7.008,1.043l-0.029-0.015c-2.322,0.41-4.629,0.868-6.909,1.34l-0.122,0.009
		c-2.219,0.507-4.412,1.033-6.601,1.555l-0.373,0.097c-2.224,0.585-4.438,1.218-6.65,1.846c-4.692,1.379-9.303,2.889-13.875,4.531
		c-4.295,1.573-8.578,3.191-12.806,4.921c23.844-16.014,47.269-32.589,67.542-52.974c7.802-7.844,15.018-16.229,21.513-25.193
		c2.884-3.927,5.91-8.161,8.224-12.663c0.573-1.115,1.118-2.251,1.605-3.415l0.361-0.891l0.462-1.257
		c0.181-0.443,0.331-0.906,0.456-1.384c0.168-0.492,0.29-0.969,0.411-1.447c0.124-0.477,0.229-0.926,0.304-1.393l0.027-0.181
		c0.127-0.555,0.227-1.125,0.295-1.715c0.117-0.872,0.207-1.764,0.219-2.655c0.295-11.722-9.142-18.884-20.022-19.746
		c-11.483-0.901-23.737,3.673-34.245,7.819c-45.452,17.993-83.008,54.182-112.026,92.691c-1.065,1.418-2.146,2.865-3.181,4.302
		c-1.082,1.447-2.117,2.885-3.143,4.365c-0.833,1.16-1.656,2.368-2.509,3.557c0.663-2.007,1.355-3.995,1.971-5.992
		c14.894-48.058,23.4-98.552,21.678-148.939c-0.392-12.361-1.471-24.687-3.13-36.964c-1.657-12.073-3.396-24.75-7.148-36.404
		c-3.5-10.797-12.341-22.207-25.081-17.13c-5.381,2.153-9.498,6.582-13.157,10.957c-4.528,5.403-8.494,11.25-11.876,17.437
		c-13.427,24.658-18.838,53.33-21.844,80.974c-1.759,16.243-2.414,32.545-2.538,48.881c-1.257-4.229-2.638-8.448-4.266-12.58
		c-3.442-8.96-7.598-17.632-12.906-25.68c-4.948-7.522-11.866-15.766-22.005-13.797c-7.586,1.491-12.755,6.913-16.151,13.797
		c-0.346,0.663-0.665,1.34-0.936,2.007c-0.765,1.71-1.396,3.464-1.956,5.296c-2.431,7.922-3.237,16.555-3.179,23.108
		c0.153,19.284,5.451,38.631,10.75,57.037c5.364,18.563,11.8,36.769,18.302,54.932c6.229,17.418,12.558,34.933,18.083,52.687
		c-0.462-0.819-0.925-1.637-1.435-2.446c-0.913-1.599-1.827-3.186-2.787-4.77c-0.942-1.612-1.905-3.191-2.865-4.774
		c-0.989-1.598-1.966-3.153-2.972-4.721c-0.906-1.471-1.846-2.884-2.799-4.346c-2.212-3.333-4.49-6.626-6.845-9.846
		c-0.821-1.15-1.659-2.266-2.516-3.357c-1.776-2.334-3.598-4.653-5.474-6.889c-0.942-1.14-1.902-2.251-2.879-3.332
		c-7.111-8.117-14.95-15.522-23.732-21.793c-5.878-4.185-12.149-7.693-18.821-10.45c-6.136-2.524-13.179-5.189-19.888-3.381
		c-4.84,1.296-8.351,4.345-10.624,8.238c-0.258,0.439-0.502,0.926-0.728,1.379c-0.336,0.711-0.641,1.432-0.916,2.173l-0.395,1.145
		l-0.302,1.121l-0.231,1.004c-0.371,1.705-0.546,3.488-0.543,5.296c-0.025,2.928,0.438,5.832,1.359,8.487
		c4.434,12.838,15.284,23.693,24.974,32.77c10.865,10.153,22.865,18.977,34.723,27.907c0.95,0.716,1.908,1.452,2.863,2.183
		c-3.089,0.097-6.231,0.297-9.32,0.546c-15.817,1.15-31.732,3.542-46.548,9.33c-14.918,5.89-28.287,14.767-39.215,26.495
		c-4.039,4.287-7.681,8.731-10.974,13.266c-35.822,49.642-31.881,115.497-32.38,174.518v1.096
		c-0.2,19.459-0.748,38.865-1.496,58.324c-0.151,3.439-0.299,6.933-0.448,10.377c-0.899,20.604-2.097,41.159-3.444,61.715
		c6.987,5.637,13.471,11.922,19.359,18.757c2.743,3.094,5.338,6.285,7.783,9.627c8.58,11.625,15.564,24.599,20.604,38.816
		c11.773,33.227,12.921,69.145,17.062,103.819c2.395,20.307,6.037,45.501,17.062,64.911c2.195,3.99,4.74,7.678,7.683,11.074
		c2.394,2.841,5.089,5.486,8.031,7.781c12.972,10.177,28.29-2.991,39.064-10.826c15.815-11.576,31.929-22.3,49.59-30.879
		c13.42-6.49,27.24-11.927,41.41-15.917c0.848-1.647,1.647-3.342,2.444-4.989c1.547-3.143,3.143-6.285,4.641-9.379l0.548-1.198
		c7.783-16.063,15.466-32.175,23.099-48.341c3.642-7.635,7.235-15.318,10.777-23.001c1.496-3.143,2.943-6.339,4.341-9.477
		c2.743-5.842,5.437-11.727,8.132-17.612c0.248-0.599,0.548-1.199,0.799-1.798c12.621-27.639,25.045-55.425,36.967-83.468
		c12.224-28.687,23.997-57.622,34.974-86.806c2.295-6.085,4.541-12.121,6.785-18.26c1.198-3.24,2.346-6.485,3.493-9.729
		c0.848-2.241,1.595-4.439,2.395-6.685c4.889-13.866,9.529-27.79,13.819-41.856c0.548-1.647,1.048-3.294,1.547-4.989
		c0.497-1.695,0.996-3.444,1.547-5.14c0.448-1.647,0.948-3.293,1.396-4.94c3.841-13.12,7.335-26.338,9.279-39.863
		c0.051-0.644,0.151-1.296,0.2-1.891c1.995-14.469,2.295-29.086-0.996-43.405c-3.642-15.82-12.075-29.934-22.75-42.012
		c-18.207-20.399-41.853-34.967-67.692-43.498c37.547-14.275,76.898-23.868,113.356-41.042l0.484-0.224
		c0.863-0.4,1.771-0.814,2.695-1.252c2.614-1.184,5.291-2.407,7.873-3.8c0.77-0.375,1.479-0.784,2.19-1.193
		c4.18-2.387,7.978-5.194,10.772-8.896C1983.309,846.338,1982.646,837.666,1976.917,831.415z"/>
	<path style="fill:#51702D;" d="M1978.169,853.188c-2.794,3.707-6.591,6.509-10.772,8.896c-0.711,0.409-1.42,0.818-2.19,1.193
		c-2.582,1.393-5.259,2.616-7.873,3.8c-0.923,0.439-1.832,0.853-2.695,1.252l-0.484,0.224
		c-36.672,17.276-76.272,26.875-114.016,41.281c-34.007,12.984-68.095,30.947-91.257,59.765c-0.241,1.155-0.501,2.339-0.743,3.493
		l-0.078,0.268c-0.96,3.99-5.411,4.219-7.975,2.09c-1.971-0.521-3.608-1.954-3.932-3.752c-0.575-0.964-0.88-2.119-0.668-3.488
		l0.061-0.711l-0.024-0.092c-9.958-27.761-34.297-47.244-57.154-64.487c-11.856-8.93-23.856-17.749-34.721-27.907
		c-9.693-9.077-20.541-19.932-24.974-32.77c-0.921-2.655-1.384-5.559-1.359-8.487c-0.005-1.807,0.173-3.591,0.543-5.296l0.231-1.004
		l0.302-1.121l0.392-1.14c0.278-0.745,0.582-1.466,0.918-2.173c0.226-0.458,0.47-0.945,0.726-1.384
		c2.275-3.893,5.786-6.943,10.626-8.234c6.709-1.813,13.749,0.848,19.888,3.377c6.67,2.762,12.943,6.27,18.821,10.45
		c8.779,6.266,16.621,13.676,23.729,21.798c0.979,1.082,1.939,2.187,2.882,3.332c1.876,2.232,3.698,4.55,5.474,6.884
		c0.855,1.092,1.693,2.207,2.516,3.357c2.356,3.22,4.631,6.514,6.845,9.846c0.952,1.462,1.893,2.875,2.799,4.346
		c1.006,1.569,1.983,3.123,2.972,4.721c0.96,1.583,1.92,3.162,2.862,4.774c0.962,1.578,1.876,3.176,2.789,4.77
		c0.509,0.809,0.972,1.627,1.435,2.446c-5.525-17.754-11.854-35.269-18.083-52.687c-6.502-18.163-12.938-36.37-18.302-54.932
		c-5.299-18.406-10.597-37.754-10.75-57.037c-0.058-6.553,0.748-15.186,3.179-23.108c0.56-1.832,1.191-3.586,1.956-5.296
		c0.27-0.667,0.589-1.344,0.936-2.007c3.396-6.884,8.565-12.302,16.151-13.797c10.139-1.969,17.057,6.275,22.005,13.797
		c5.306,8.049,9.464,16.721,12.904,25.68c1.63,4.132,3.009,8.351,4.268,12.58c0.124-16.336,0.78-32.638,2.538-48.881
		c3.004-27.644,8.417-56.316,21.841-80.974c3.382-6.187,7.35-12.034,11.878-17.437c3.659-4.375,7.776-8.799,13.157-10.957
		c12.74-5.077,21.578,6.334,25.081,17.13c3.752,11.654,5.491,24.326,7.148,36.404c1.659,12.277,2.738,24.604,3.13,36.964
		c1.722,50.387-6.784,100.881-21.678,148.939c-0.616,1.998-1.308,3.985-1.971,5.992c0.853-1.188,1.673-2.397,2.509-3.557
		c1.023-1.481,2.059-2.918,3.143-4.365c1.035-1.437,2.117-2.884,3.181-4.302c29.018-38.509,66.574-74.698,112.026-92.691
		c10.509-4.146,22.76-8.721,34.245-7.819c10.88,0.862,20.314,8.024,20.022,19.746c-0.015,0.897-0.102,1.783-0.219,2.66
		c-0.071,0.585-0.168,1.154-0.295,1.71l-0.027,0.181c-0.075,0.467-0.183,0.916-0.304,1.393c-0.122,0.477-0.244,0.955-0.411,1.447
		c-0.125,0.478-0.276,0.941-0.456,1.384l-0.462,1.262l-0.361,0.886c-0.487,1.164-1.033,2.3-1.605,3.415
		c-2.314,4.497-5.34,8.736-8.224,12.663c-6.495,8.965-13.71,17.349-21.513,25.193c-20.273,20.38-43.698,36.96-67.542,52.974
		c4.229-1.729,8.511-3.347,12.806-4.921c4.572-1.647,9.184-3.152,13.875-4.531c2.212-0.629,4.426-1.262,6.65-1.842l0.373-0.098
		c2.19-0.526,4.38-1.052,6.601-1.559l0.122-0.009c2.28-0.472,4.587-0.93,6.909-1.34l0.029,0.015c2.348-0.39,4.682-0.755,7.008-1.043
		c9.265-1.145,18.589-1.111,27.756,0.594c7.729,1.418,16.168,4.112,21.625,10.085
		C1982.646,837.666,1983.309,846.338,1978.169,853.188z"/>
	<path style="fill:#BF651F;" d="M1919.804,1090.365c-31.559-0.068-63.018-2.592-94.36-7.133
		c-41.049-5.929-81.602-14.787-122.069-23.795c-6.395-1.423-3.764-11.23,2.628-9.807c22.548,5.009,45.113,9.993,67.775,14.402
		c40.462,7.946,81.305,14.226,122.513,15.854c8.816,0.366,17.666,0.468,26.482,0.361c-0.458,1.656-0.945,3.298-1.43,4.935
		C1920.835,1086.925,1920.296,1088.65,1919.804,1090.365z"/>
	<path style="fill:#BF651F;" d="M1898.557,1153.595l-0.017,0.029c-51.332-6.602-102.304-15.976-152.608-28.102
		c-6.399-1.54-3.724-11.362,2.602-9.822c15.418,3.708,30.85,7.191,46.377,10.378c35.491,7.318,71.208,13.232,107.137,17.783
		C1900.925,1147.125,1899.741,1150.36,1898.557,1153.595z"/>
	<path style="fill:#BF651F;" d="M1723.803,1225.526c-14.343,1.237-28.738,1.418-43.105,0.682
		c-47.635-2.519-94.026-14.558-139.867-27.133c0.182-3.469,0.334-6.952,0.467-10.406c11.908,3.269,23.832,6.509,35.829,9.554
		c47.87,12.195,97.066,21.515,146.673,17.096C1730.339,1214.744,1730.266,1224.946,1723.803,1225.526z"/>
	<path style="fill:#BF651F;" d="M1707.784,1280.478c-21.403,1.296-42.806,2.641-64.16,3.888
		c-26.392,1.647-52.733,3.245-79.074,4.789c-2.446-3.342-5.04-6.534-7.783-9.627c50.338-3.094,100.676-6.139,151.017-9.233
		C1714.369,1269.896,1714.32,1280.079,1707.784,1280.478z"/>
	<path style="fill:#BF651F;" d="M1806.546,1371.035c-51.895-10.543-103.319-23.439-154.026-38.704
		c-6.287-1.871-3.659-11.678,2.599-9.827c16.655,5.023,33.356,9.758,50.15,14.27c34.933,9.345,70.178,17.618,105.648,24.765
		C1809.496,1364.711,1808.043,1367.864,1806.546,1371.035z"/>
	<path style="fill:#BF651F;" d="M1767.525,1452.92c-53.734-12.166-105.907-31.035-155.071-55.994
		c-5.834-2.977-0.646-11.722,5.131-8.78c17.542,8.877,35.417,17.047,53.656,24.331c32.731,13.042,66.501,23.434,100.891,31.083
		C1770.621,1446.684,1769.065,1449.816,1767.525,1452.92z"/>
	<path style="fill:#BF651F;" d="M1654.301,1508.87c-9.13,0.103-18.26-0.248-27.339-1.096c-2.943-3.396-5.488-7.084-7.683-11.074
		c11.576,1.496,23.298,2.144,35.023,2.046C1660.886,1498.644,1660.886,1508.822,1654.301,1508.87z"/>
	<path style="fill:#8C675C;" d="M1840.94,1451.166c-40.726-4.77-80.716,4.906-117.268,22.694
		c-17.666,8.594-33.781,19.293-49.607,30.854c-10.765,7.864-26.078,21.004-39.079,10.831c-23.81-18.626-29.486-55.834-32.784-83.741
		c-4.105-34.699-5.257-70.591-17.033-103.828c-23.293-65.749-88.27-104.262-156.013-107.6
		c-72.542-3.567-141.18,38.519-186.39,92.598c-25.59,30.616-43.091,66.499-65.914,99.005c-20.122,28.658-46.192,52.57-76.202,70.538
		c-29.283,17.535-62.594,29.403-96.574,33.223c-19.159,2.153-38.338,2.031-56.952-3.454c-16.18-4.765-30.029-15.025-42.246-26.343
		c-26.733-24.759-48.631-53.729-77.514-76.316c-29.776-23.289-63.261-42.139-99.965-51.912c-34.587-9.203-71.622-9.082-105.738,2.09
		c-27.438,8.984-52.37,24.4-74.718,42.46c-45.615,36.857-82.759,84.467-130.067,118.162c-22.37,15.926-45.205,27.522-72.543,32.141
		c-33.086,5.589-66.979,2.826-100.162,7.601c-34.913,5.028-67.651,18.216-88.006,48.467c-27.035,40.18-19.174,96.686,11.491,133.972
		c41.11,49.988,103.717,42.051,161.587,34.499c84.033-10.957,165.326-36.501,249.225-48.073
		c83.103-11.464,164.907-2.353,247.209,10.738c82.494,13.125,165.816,28.467,249.72,24.195
		c43.003-2.188,85.444-9.832,127.911-16.492c42.82-6.714,85.61-11.371,128.995-11.605c85.344-0.463,170.023,11.81,254.885,19.084
		c80.776,6.923,167.879,12.711,246.444-11.639c70.284-21.788,132.403-77.914,136.125-155.292
		C1973.231,1515.77,1909.08,1459.137,1840.94,1451.166z"/>
	<polygon style="fill:#8C675C;" points="688.83,1351.469 688.431,1351.571 688.431,1351.469 	"/>
	<path style="fill:#774F45;" d="M1969.906,1582.361c0,1.895-0.051,3.742-0.151,5.637c-0.149,2.792-0.348,5.588-0.648,8.331
		c-0.1,0.848-0.199,1.647-0.299,2.495c-0.248,1.944-0.499,3.839-0.799,5.734c-0.149,0.901-0.299,1.798-0.448,2.699
		c-0.348,1.745-0.699,3.44-1.048,5.135c-0.1,0.75-0.299,1.55-0.5,2.295c-0.149,0.697-0.348,1.447-0.548,2.149
		c-0.448,1.842-0.948,3.742-1.498,5.583c-1.247,4.443-2.743,8.785-4.49,13.072c-0.4,0.901-0.748,1.798-1.147,2.743
		c-0.248,0.653-0.548,1.35-0.848,1.998c-1.196,2.845-2.543,5.691-3.99,8.434c-0.699,1.447-1.498,2.889-2.295,4.287
		c-0.3,0.599-0.651,1.199-0.999,1.798c-1.547,2.743-3.193,5.437-4.94,8.083c-1.247,1.895-2.543,3.791-3.89,5.685l-0.699,0.999
		c-1.547,2.144-3.191,4.293-4.838,6.387l-0.45,0.546c-1.595,1.998-3.242,3.941-4.938,5.837c-1.946,2.246-3.941,4.443-6.036,6.587
		c-0.999,0.999-1.995,2.047-3.043,3.045l-0.4,0.4c-0.898,0.848-1.797,1.744-2.694,2.592c-1.498,1.398-2.994,2.743-4.541,4.093
		c-1.547,1.344-3.094,2.646-4.64,3.941c-1.296,1.097-2.592,2.144-3.89,3.143c25.094-30.684,45.848-69.5,23.897-106.216
		c-14.068-23.649-40.061-38.119-64.908-48.043c-24.646-9.779-53.481-15.566-79.573-8.234
		c-52.485,14.718-72.889,71.79-110.058,105.719c-19.656,17.91-45.8,30.231-72.64,30.231c-26.64,0-59.02-15.415-65.705-43.551
		c-2.843-11.878,0.899-23.8,4.39-35.123c3.742-12.073,7.535-24.2,8.182-36.921c0.548-11.376-1.496-23.05-9.33-31.781
		c-6.185-6.884-14.867-10.124-22.799-14.417c-26.192-14.222-12.872-42.757-0.848-62.611c12.321-20.458,26.889-39.215,30.083-63.609
		c2.346-18.114-2.943-36.17-16.463-48.794c-16.865-15.615-40.76-20.906-62.962-22.747c-25.344-2.095-49.142,4.287-71.044,16.862
		c-20.304,11.62-38.165,27.04-58.918,37.914c-11.225,5.939-23.449,10.528-36.27,11.123c-13.422,0.653-26.742-0.395-39.115,5.939
		c-23.747,12.126-36.17,44.004-47.045,66.655c-23.849,49.637-36.421,107.863-84.165,141.188
		c-25.944,18.158-56.774,27.24-88.406,26.49c-33.476-0.799-61.415-13.271-89.702-29.934c-23.398-13.72-51.386-33.125-79.873-30.08
		c-23.949,2.592-40.063,21.403-58.372,34.874c-15.266,11.172-33.276,16.76-51.637,20.653c-17.71,3.791-39.612,7.035-56.922-0.4
		c-20.804-8.93-15.915-32.93-10.826-50.587c7.384-25.447,20.404-50.489,21.052-77.432c0.548-21.203-4.042-44.701-18.36-61.115
		c-15.315-17.462-39.213-20.755-61.115-17.564c-27.637,4.044-50.786,21.656-71.542,39.166
		c-10.925,9.282-21.452,19.108-32.728,27.888c-13.369,10.378-27.588,19.556-41.459,29.135
		c-26.041,18.012-50.738,36.921-66.501,64.959c-14.219,25.394-24.548,53.73-52.435,67.152
		c-51.837,24.892-103.722-10.226-155.358-14.719c-31.977-2.743-58.421,13.471-75.982,37.466c-0.049-3.742,0.151-7.484,0.499-11.177
		c0.151-1.442,0.299-2.942,0.499-4.438l0.048-0.249c0.251-1.647,0.499-3.294,0.799-4.941c0.149-0.896,0.299-1.744,0.499-2.592
		c0.299-1.447,0.648-2.796,1.047-4.19l0.093-0.341c0.531-2.061,1.126-4.097,1.793-6.12l0.309-0.974l0.277-0.745
		c0.692-1.973,1.45-3.922,2.275-5.851l0.341-0.838l0.382-0.799c0.833-1.851,1.727-3.683,2.689-5.486l0.57-1.101
		c0.648-1.247,1.348-2.441,2.047-3.64c0.696-1.145,1.447-2.343,2.243-3.493c0.947-1.393,1.946-2.791,2.945-4.141
		c0.996-1.345,2.044-2.694,3.092-3.942c0.799-0.945,1.598-1.846,2.346-2.743c0.699-0.75,1.347-1.447,2.046-2.144
		c0.748-0.799,1.496-1.549,2.244-2.348c1.547-1.496,3.143-2.943,4.741-4.336c0.996-0.799,1.944-1.647,2.943-2.446
		c0.699-0.498,1.347-1.048,2.046-1.55c4.638-3.542,9.579-6.636,14.716-9.325c1.199-0.653,2.446-1.301,3.693-1.846l1.296-0.6
		c0.999-0.502,1.998-0.95,2.994-1.398c4.09-1.798,8.231-3.343,12.524-4.74c1.096-0.4,2.195-0.745,3.342-1.048
		c6.736-2.047,13.72-3.64,20.753-4.887c2.097-0.351,4.192-0.702,6.287-0.999c33.176-4.789,67.103-1.998,100.18-7.586
		c0.896-0.146,1.747-0.297,2.643-0.497c26.192-4.892,48.243-16.214,69.897-31.629c42.903-30.636,77.529-72.643,117.64-107.712
		c4.039-3.596,8.231-7.084,12.422-10.48c2.046-1.647,4.041-3.24,6.136-4.789c1.547-1.199,3.142-2.392,4.74-3.591
		c3.244-2.426,6.568-4.74,9.922-6.996l0.056-0.039c1.944-1.296,3.89-2.592,5.837-3.839c3.69-2.397,7.432-4.643,11.274-6.787
		c11.676-6.636,23.949-12.224,36.77-16.414c2.545-0.848,5.089-1.599,7.683-2.295c1.946-0.551,3.941-1.048,5.936-1.549
		c2.595-0.595,5.189-1.194,7.783-1.642c2.046-0.4,4.042-0.75,6.087-1.048c2.295-0.351,4.638-0.702,6.984-0.95
		c2.343-0.248,4.69-0.497,7.033-0.648c2.346-0.2,4.692-0.351,7.035-0.4c4.141-0.2,8.283-0.2,12.472-0.049
		c1.947,0.049,3.842,0.146,5.737,0.248c13.123,0.746,26.244,2.846,38.965,6.236c36.719,9.778,70.197,28.638,99.979,51.936
		c22.051,17.213,40.012,38.163,59.22,58.173c2.195,2.294,4.441,4.589,6.736,6.884c0.548,0.6,1.147,1.199,1.744,1.744
		c0.799,0.848,1.646,1.696,2.494,2.494c2.397,2.348,4.791,4.692,7.286,6.987c12.222,11.323,26.092,21.603,42.255,26.339
		c13.52,3.995,27.391,5.14,41.31,4.692c0.948-0.049,1.844-0.102,2.743-0.151c4.29-0.2,8.631-0.546,12.921-1.048
		c33.975-3.839,67.302-15.712,96.588-33.223c2.044-1.247,4.09-2.495,6.085-3.795c1.299-0.799,2.595-1.647,3.893-2.543
		c2.195-1.398,4.338-2.894,6.434-4.389c14.419-10.226,27.739-21.905,39.714-34.875c3.742-4.141,7.433-8.38,10.926-12.769
		c0.996-1.247,1.944-2.495,2.943-3.742c0.799-0.999,1.596-2.046,2.346-3.142c1.296-1.749,2.594-3.493,3.842-5.291
		c2.044-2.894,3.99-5.788,5.937-8.731c3.891-5.885,7.683-11.824,11.374-17.812c2.294-3.64,4.589-7.332,6.835-11.026
		c1.396-2.294,2.794-4.589,4.241-6.933c1.844-2.991,3.69-5.988,5.537-8.979c3.942-6.339,7.983-12.672,12.173-18.86
		c1.846-2.791,3.742-5.486,5.688-8.234c4.439-6.285,9.13-12.473,14.119-18.455c4.09-4.892,8.331-9.632,12.77-14.27
		c1.198-1.296,2.446-2.597,3.742-3.844c5.839-5.934,11.976-11.62,18.36-17.008c1.747-1.496,3.493-2.996,5.289-4.39
		c3.442-2.845,6.935-5.54,10.526-8.137c2.095-1.496,4.141-2.991,6.287-4.487c5.537-3.844,11.225-7.435,17.011-10.777
		c1.598-0.95,3.193-1.847,4.84-2.743c1.595-0.896,3.242-1.798,4.84-2.646c2.144-1.096,4.29-2.197,6.485-3.24
		c2.295-1.15,4.641-2.198,6.984-3.245c2.346-1.048,4.69-2.046,7.036-2.991c6.636-2.699,13.369-5.091,20.204-7.084
		c13.32-3.946,26.991-6.538,40.859-7.483c2.546-0.151,5.089-0.302,7.635-0.351c4.49-0.151,8.979-0.102,13.52,0.098
		c2.543,0.151,5.089,0.302,7.632,0.55c2.146,0.2,4.342,0.4,6.487,0.697c0.697,0.048,1.348,0.151,2.044,0.253
		c2.197,0.297,4.392,0.643,6.587,0.994c10.027,1.646,19.905,4.092,29.435,7.337c20.455,6.83,39.613,17.111,56.075,30.582
		c21.254,17.31,38.116,39.912,47.746,67.2c11.773,33.227,12.921,69.145,17.062,103.819c3.294,27.941,8.979,65.106,32.777,83.766
		c12.972,10.177,28.29-2.991,39.064-10.826c15.815-11.576,31.929-22.3,49.59-30.879c13.42-6.49,27.24-11.927,41.41-15.917
		c2.244-0.648,4.49-1.247,6.736-1.798c2.144-0.545,4.29-1.043,6.434-1.496l1.05-0.2c2.044-0.497,4.091-0.896,6.185-1.247
		c2.294-0.448,4.589-0.799,6.884-1.145c2.294-0.351,4.589-0.648,6.935-0.901c2.295-0.249,4.641-0.497,6.935-0.648
		c2.344-0.2,4.638-0.346,6.984-0.395c2.295-0.102,4.641-0.151,6.936-0.151c6.933,0,13.868,0.4,20.804,1.193
		c4.29,0.502,8.531,1.199,12.721,2.046c1.946,0.4,3.893,0.848,5.788,1.35c2.046,0.497,4.09,1.048,6.085,1.647
		c9.13,2.645,18.061,6.182,26.592,10.475c1.198,0.599,2.394,1.198,3.593,1.846c3.094,1.647,6.136,3.391,9.079,5.291
		c1.198,0.697,2.346,1.442,3.493,2.242c0.448,0.253,0.896,0.55,1.347,0.848c1.247,0.901,2.495,1.749,3.691,2.597l0.299,0.249
		c1.398,0.999,2.745,1.998,4.092,3.045c0.848,0.599,1.696,1.247,2.543,1.993c0.799,0.648,1.595,1.296,2.395,1.998
		c2.643,2.143,5.189,4.438,7.632,6.835c1.347,1.247,2.645,2.592,3.892,3.892l1.196,1.247c1.198,1.296,2.346,2.543,3.493,3.888
		c1.047,1.199,2.095,2.397,3.042,3.644c1.048,1.247,1.998,2.495,2.945,3.742c0.796,1.048,1.595,2.095,2.343,3.143
		c3.394,4.789,6.436,9.729,9.13,14.914c0.947,1.749,1.846,3.547,2.643,5.34c0.75,1.549,1.447,3.142,2.046,4.741
		c0.499,1.096,0.948,2.246,1.347,3.391c0.6,1.496,1.099,2.948,1.596,4.444c0.45,1.247,0.85,2.495,1.198,3.742
		c0.348,1.096,0.648,2.246,0.899,3.391c0.448,1.598,0.848,3.191,1.147,4.789c0.299,1.096,0.497,2.198,0.697,3.294
		c0.251,1.198,0.45,2.397,0.599,3.59l0.1,0.551c0.3,1.744,0.499,3.493,0.699,5.238c0.149,1.797,0.299,3.542,0.4,5.286
		C1969.854,1578.02,1969.906,1580.164,1969.906,1582.361z"/>
	<path style="fill:#668942;" d="M1292.299,748l-0.249,0.546c-8.582,19.011-20.804,36.17-35.971,50.542
		c-17.313,16.414-38.066,28.687-60.716,36.068c-0.551,0.151-1.048,0.248-1.498,0.302c-1.596,2.495-4.938,4.136-8.331,2.343
		c-17.313-9.228-32.528-21.652-46.896-34.923c-14.919-13.72-29.186-27.99-43.753-42.11c-0.6-0.648-1.199-1.193-1.796-1.793
		c-14.918-14.47-30.034-28.838-44.701-43.605c-12.723-12.872-24.896-26.543-34.226-42.158c-7.732-12.969-15.963-29.783-11.674-45.3
		c1.895-6.782,7.084-12.473,14.119-13.92c9.33-1.944,18.309,3.445,26.041,7.883c28.288,16.117,52.285,39.064,72.241,64.706
		c-3.442-5.685-6.933-11.323-10.475-16.911c-29.637-46.548-66.504-90.05-85.212-142.683c-6.236-17.564-21.003-60.019,9.878-62.416
		c10.974-0.848,21.703,4.341,30.334,10.68c9.878,7.235,19.057,15.512,27.34,24.496c33.924,36.867,53.081,84.613,68.299,131.609
		c8.78,27.24,16.813,54.777,24.246,82.47c1.595,5.885,3.094,11.771,4.589,17.71c-5.637-40.813-16.163-80.921-31.481-119.39
		c-25.193-63.41-59.717-122.878-80.62-187.984c-5.089-15.815-14.37-41.31-10.429-60.516c0.351-1.598,0.75-3.191,1.299-4.692
		c1.048-3.04,2.543-5.837,4.49-8.38c0.499-0.599,0.999-1.198,1.595-1.793c2.794-2.948,6.387-5.442,10.926-7.288
		c31.083-12.57,58.872,18.709,75.933,40.565c41.659,53.48,57.773,121.178,61.563,187.735c1.947,34.572,0.948,69.246-1.047,103.819
		c0.999-4.989,1.946-9.978,3.045-14.967c3.291-15.367,6.336-31.279,12.821-45.7c5.438-12.024,14.916-27.79,29.335-29.934
		c17.613-2.592,20.904,18.309,22.002,31.181c2.994,34.377-10.329,67.502-24.597,97.987c-2.095,4.487-4.341,8.877-6.485,13.32
		c5.237-3.791,10.974-6.938,17.162-9.179c8.879-3.197,21.304-5.788,26.492,4.535C1300.233,729.491,1295.941,739.869,1292.299,748z"
		/>
	<path style="fill:#59261E;" d="M810.367,1690.292c-88.099-10.231-173.251-45.208-263.13-32.994
		c-83.183,11.303-159.319,54.665-243.942,57.802c-40.928,1.52-83.622-6.344-116.238-32.599c-7.435-5.983-18.09,4.54-10.584,10.582
		c61.921,49.851,147.314,41.383,218.94,20.955c43.028-12.273,85.01-28.35,128.866-37.622c45.142-9.544,90.111-7.932,135.358,0.043
		c50.404,8.887,99.797,22.885,150.729,28.799C819.916,1706.37,819.835,1691.393,810.367,1690.292z"/>
	<path style="fill:#59261E;" d="M858.473,1503.467c-29.939-15.391-59.424-31.634-88.43-48.715
		c-8.317-4.901-15.856,8.029-7.554,12.921c29.006,17.082,58.492,33.33,88.43,48.716
		C859.469,1520.788,867.051,1507.877,858.473,1503.467z"/>
	<path style="fill:#59261E;" d="M1022.893,1548.49c-24.175,3.873-49.654,0.419-71.941-9.71c-3.676-1.671-8.054-1.053-10.239,2.684
		c-1.878,3.211-1.013,8.561,2.685,10.241c26.292,11.946,54.962,15.785,83.475,11.215c3.993-0.638,6.212-5.617,5.226-9.203
		C1030.932,1549.465,1026.901,1547.847,1022.893,1548.49z"/>
	<path style="fill:#59261E;" d="M1455.111,1291.835c9.593,0.828,9.54-14.143,0-14.967c-54.567-4.721-110.135,9.691-155.58,40.253
		c-7.951,5.349-0.468,18.319,7.554,12.925C1350.591,1300.785,1402.885,1287.318,1455.111,1291.835z"/>
	<path style="fill:#59261E;" d="M1521.661,1308.541c1.33,0.853,2.604,1.774,3.871,2.714c3.971,3.152,7.561,6.738,10.721,10.704
		c1.851,2.495,3.554,5.086,5.045,7.815c1.876,3.44,6.909,4.833,10.239,2.685c3.488-2.246,4.692-6.558,2.685-10.236
		c-5.908-10.826-14.633-19.975-25.006-26.601c-3.306-2.114-8.402-0.794-10.239,2.685
		C1517.018,1302.008,1518.134,1306.29,1521.661,1308.541z"/>
	<path style="fill:#59261E;" d="M1641.149,1640.904c17.627-5.018,28.679-19.547,38.17-34.304
		c10.012-15.576,20.317-30.295,33.552-43.361c27.179-26.835,61.554-45.534,98.796-53.9c9.396-2.105,5.42-16.54-3.978-14.431
		c-37.167,8.346-71.746,26.68-99.802,52.419c-13.725,12.589-25.693,27.025-35.756,42.684c-8.928,13.9-17.859,31.59-34.96,36.463
		C1627.923,1629.108,1631.853,1643.554,1641.149,1640.904z"/>
	<path style="fill:#59261E;" d="M1911.256,1518.21c-1.693-0.516-3.347-1.145-4.991-1.802c-4.102-1.818-7.98-4.083-11.583-6.758
		c-1.381-1.111-2.74-2.241-4.025-3.464c-2.833-2.704-7.805-3.026-10.582,0c-2.689,2.928-3.025,7.698,0,10.582
		c7.698,7.347,17.021,12.784,27.203,15.873c3.746,1.135,8.324-1.354,9.206-5.228
		C1917.405,1523.375,1915.268,1519.424,1911.256,1518.21z"/>
	<path style="fill:#59261E;" d="M1958.622,1578.517c-1.735-2.285-3.469-4.57-5.201-6.85c-0.47-0.872-1.113-1.574-1.927-2.1
		c-0.724-0.663-1.572-1.111-2.546-1.34c-0.996-0.312-1.99-0.356-2.984-0.136c-0.996,0.048-1.925,0.341-2.782,0.891
		c-0.506,0.39-1.011,0.779-1.515,1.169c-0.928,0.931-1.569,2.032-1.924,3.304c-0.09,0.663-0.178,1.325-0.268,1.988
		c0.005,1.349,0.346,2.611,1.023,3.776c1.732,2.285,3.466,4.57,5.199,6.85c0.47,0.872,1.113,1.573,1.929,2.1
		c0.721,0.663,1.571,1.111,2.543,1.34c0.996,0.312,1.991,0.356,2.984,0.137c0.996-0.049,1.924-0.341,2.784-0.891
		c0.504-0.39,1.008-0.78,1.513-1.169c0.928-0.931,1.569-2.031,1.925-3.303c0.09-0.663,0.178-1.325,0.268-1.988
		C1959.638,1580.943,1959.297,1579.681,1958.622,1578.517z"/>
	<path style="fill:#59261E;" d="M1833.415,1693.853c-33.228,12.998-67.023,24.891-101.938,32.492
		c-34.119,7.425-68.711,9.793-103.493,6.563c-66.162-6.144-129.39-28.667-194.768-39.371c-36.724-6.012-73.773-8.073-110.637-2.07
		c-9.484,1.544-5.459,15.97,3.978,14.436c66.267-10.792,132.464,7.23,196.483,22.567c32.509,7.791,65.198,15.128,98.477,18.753
		c33.58,3.654,67.074,2.339,100.303-3.712c39.734-7.24,78.053-20.546,115.573-35.22
		C1846.265,1704.82,1842.404,1690.341,1833.415,1693.853z"/>
	<path style="fill:#59261E;" d="M1231.454,1696.255c-29.257-0.633-58.513-1.267-87.77-1.9c-9.634-0.209-9.632,14.757,0,14.967
		c29.257,0.633,58.513,1.267,87.77,1.9C1241.091,1711.432,1241.089,1696.465,1231.454,1696.255z"/>
</g>
</svg>
