<?xml version="1.0" encoding="utf-8"?>
<!-- Generator: Adobe Illustrator 27.5.0, SVG Export Plug-In . SVG Version: 6.00 Build 0)  -->
<svg version="1.1" id="Capa_1" xmlns="http://www.w3.org/2000/svg" xmlns:xlink="http://www.w3.org/1999/xlink" x="0px" y="0px"
	 viewBox="0 0 2122 2122" style="enable-background:new 0 0 2122 2122;" xml:space="preserve">
<g>
	<path style="fill:#B6254B;" d="M1076.068,441.637c23.835-34.167,56.282-83.353,68.533-114.354
		c-3.714-30.622-19.026-146.349-47.918-233.977c0,0-31.131,63.494-82.595,182.167c0,0-19.001,40.607-23.995,107.875
		c3.157,15.165,4.967,31.209,5.684,47.746C1022.721,430.504,1049.605,434.031,1076.068,441.637z"/>
	<path style="fill:#B7254C;" d="M758.957,546.333c2.486-7.298,5.039-15.096,7.684-23.582c3.242,4.665,6.483,9.33,9.725,13.995
		c-1.817-28.981,7.365-43.852,7.365-43.852c7.663-63.94,20.063-133.885,29.1-181.24c-15.804-24.802-65.474-104.433-80.399-148.49
		c0,0-2.553,105.171-18.302,197.232c0,0-10.299,33.966,4.96,92.38c14.87,32.258,27.748,62.08,35.033,85.062
		C755.68,540.642,757.292,543.474,758.957,546.333z"/>
	<path style="fill:#CD2855;" d="M601.005,727.933c16.315,0.69,32.343,6.57,47.424,12.54c4.527,1.792,9.06,3.613,13.582,5.463
		c0.59-2.47,1.1-4.956,1.734-7.416c3.471-13.464,7.656-26.761,12.42-39.878c-4.059-5.606-7.533-10.59-10.181-14.594
		c-25.571-38.673-39.537-84.735-37.643-131.058c0.412-10.076,0.735-21.497,0.985-33.85
		c-33.034-43.243-114.797-147.418-177.143-203.097c0,0,33.597,108.262,48.332,236.771c0,0,4.336,50.443,38.946,117.035
		C561.898,689.44,582.629,709.135,601.005,727.933z"/>
	<path style="fill:#CD2855;" d="M923,443.061c1.295-0.401,2.59-0.787,3.886-1.168c3.155-0.929,6.312-1.817,9.473-2.625
		c0.93-0.237,1.861-0.448,2.791-0.675c15.894-3.884,31.852-6.282,47.808-7.174c0.011-0.001,0.022-0.002,0.032-0.003v0.001
		c2.93-0.164,5.859-0.258,8.788-0.322c-0.717-16.537-2.527-32.581-5.684-47.746c-0.688-3.304-1.42-6.578-2.239-9.794
		c0,0-24.332-133.871-61.656-227.542c0,0-22.158,67.144-57.706,191.511c0,0-0.78,2.537-1.927,7.149
		c17.896,36.449,37.029,74.731,49.937,100.442C918.665,444.385,920.833,443.734,923,443.061z"/>
	<path style="fill:#CD2855;" d="M1203.051,500.232L1203.051,500.232c0.001,0.002,0.001,0.005,0.002,0.007
		c0.576,1.767,1.141,3.724,1.667,5.871c0.023,0.096,0.047,0.194,0.07,0.291c0.502,2.076,0.964,4.328,1.364,6.756
		c0.03,0.183,0.06,0.365,0.089,0.55c0.072,0.451,0.143,0.903,0.21,1.366c1.351,1.17,2.703,2.332,4.046,3.526
		c3.311,2.945,6.591,5.991,9.86,9.078c1.374,1.296,2.76,2.549,4.126,3.87c4.548,4.401,9.062,8.912,13.521,13.587
		c0.017,0.018,0.034,0.034,0.051,0.051c1.032,1.082,2.05,2.179,3.078,3.266c5.689-13.775,15.574-31.032,27.822-50.251
		c10.003-32.543,16.471-65.277,16.514-95.659c0,0,9.661-135.721-3.243-235.725c0,0-38.132,59.543-103.439,171.193
		c0,0-8.942,14.533-19.441,40.689c8.584,31.587,21.299,72.127,38.059,109.084C1197.408,487.78,1200.336,491.91,1203.051,500.232z"/>
	<path style="fill:#E65474;" d="M1272.24,583.04c2.743,3.238,5.454,6.497,8.13,9.778c8.026,9.844,15.731,19.889,23.008,30.153
		c2.425,3.421,4.803,6.866,7.129,10.337c5.965,8.898,11.545,17.981,16.765,27.22c3.345-17.61,6.467-32.245,9.726-42.072
		c5.253-15.841,18.415-37.065,35.426-60.91c16.406-98.919,33.393-271.385,33.393-271.385
		c-17.268,47.141-92.462,142.373-136.858,212.037c-12.249,19.22-22.133,36.477-27.822,50.251
		C1251.793,559.718,1262.233,571.229,1272.24,583.04z"/>
	<path style="fill:#E32F68;" d="M665.985,684.049c2.647,4.004,6.122,8.988,10.181,14.594c2.805-7.722,5.872-15.357,9.112-22.933
		c2.765-6.466,5.686-12.87,8.76-19.215c2.895-5.974,5.923-11.889,9.087-17.746c6.398-11.845,13.335-23.435,20.802-34.737
		c5.043-7.633,10.236-15.18,15.749-22.532c4.024-5.366,8.178-10.65,12.447-15.855c1.805-4.898,3.643-10.031,5.519-15.455
		c-0.953-3.844-2.13-7.961-3.517-12.333c-7.285-22.982-20.163-52.804-35.033-85.062c-36.734-79.689-85.421-173.996-90.92-215.486
		c0,0,3.306,175.759,1.156,281.851c-0.251,12.352-0.573,23.774-0.985,33.85C626.447,599.314,640.413,645.376,665.985,684.049z"/>
	<path style="fill:#E32F68;" d="M1327.271,660.528c0.888,1.571,1.809,3.127,2.673,4.708c1.981,3.627,3.899,7.281,5.748,10.961
		c2.655,5.283,5.117,10.644,7.482,16.043c2.58,5.888,5.034,11.825,7.24,17.855c2.418,6.612,4.522,13.342,6.408,20.129
		c33.454-31.589,68.539-55.396,104.313-77.981c2.219-5.947,4.467-11.888,6.812-17.786c52.575-132.204,52.575-285.428,52.575-285.428
		c-15.376,46.369-98.308,138.721-148.1,208.517c-17.011,23.844-30.173,45.068-35.426,60.91
		C1333.738,628.283,1330.616,642.918,1327.271,660.528z"/>
	<path style="fill:#E32F68;" d="M776.366,536.746c0.218,0.314,0.437,0.628,0.655,0.941c5.083-5.27,10.272-10.457,15.623-15.505
		c4.165-3.929,8.359-7.7,12.571-11.365c1.407-1.224,2.825-2.378,4.237-3.573c2.815-2.383,5.633-4.742,8.467-7.009
		c1.714-1.372,3.436-2.69,5.158-4.021c2.539-1.961,5.083-3.892,7.637-5.762c1.873-1.372,3.749-2.717,5.629-4.04
		c2.42-1.703,4.848-3.355,7.279-4.977c1.97-1.315,3.939-2.629,5.916-3.891c2.346-1.496,4.701-2.92,7.057-4.342
		c2.053-1.24,4.103-2.509,6.162-3.693c2.253-1.295,4.517-2.494,6.779-3.722c4.732-2.571,9.478-4.997,14.241-7.277
		c1.428-0.683,2.851-1.419,4.282-2.076c2.792-1.283,5.593-2.452,8.395-3.636c1.548-0.654,3.095-1.336,4.646-1.96
		c2.857-1.151,5.72-2.215,8.585-3.263c1.466-0.536,2.93-1.077,4.398-1.586c0.807-0.281,1.611-0.6,2.419-0.873
		c-12.908-25.71-32.041-63.992-49.937-100.442c-18.017-36.696-34.744-71.466-42.479-89.445c0,0-4.76,22.389-11.255,56.425
		c-9.037,47.355-21.436,117.3-29.1,181.24C783.732,492.894,774.549,507.765,776.366,536.746z"/>
	<path style="fill:#E32F68;" d="M1115.58,456.163L1115.58,456.163c0.001,0,0.003,0.001,0.005,0.003
		c16.029,7.157,31.825,15.791,47.306,25.89c0.444,0.289,0.884,0.6,1.328,0.891c4.413,2.906,8.8,5.926,13.158,9.067
		c1.153,0.829,2.298,1.687,3.447,2.533c3.642,2.685,7.265,5.445,10.866,8.293c0.797,0.63,1.607,1.207,2.401,1.845
		c2.986-1.476,5.976-2.948,8.96-4.452c-2.715-8.322-5.643-12.452-5.643-12.452c-16.761-36.957-29.475-77.498-38.059-109.084
		c-8.796-32.366-13.255-55.33-13.255-55.33c-0.45,1.262-0.966,2.585-1.492,3.917c-12.251,31-44.699,80.187-68.533,114.354
		C1089.363,445.459,1102.543,450.343,1115.58,456.163z"/>
	<path style="fill:#C92853;" d="M1205.907,514.613c0.175,0.151,0.352,0.291,0.526,0.442c-0.065-0.446-0.121-0.914-0.19-1.349
		c-0.03-0.185-0.059-0.368-0.089-0.55c-0.4-2.426-0.862-4.68-1.364-6.756c-0.024-0.097-0.047-0.195-0.07-0.291
		c-0.527-2.144-1.092-4.105-1.667-5.871c-0.001-0.002-0.001-0.005-0.002-0.007l0,0c-2.984,1.504-5.974,2.976-8.96,4.452
		c0.648,0.52,1.282,1.095,1.929,1.621C1199.335,509,1202.629,511.778,1205.907,514.613z"/>
	<path style="fill:#3C5922;" d="M684.817,1373.491c-9.697-10.047-19.837-20.232-32.651-25.781
		c-11.591-5.019-24.493-5.857-37.091-6.768c-97.593-7.057-203.131-19.292-304.63-80.584
		c14.138,48.174,40.175,137.791,48.513,187.299c8.338,49.508,65.657,123.109,110.787,145.106
		c37.624,18.339,83.7,12.278,121.101,31.067c28.882,14.51,48.876,41.958,74.909,61.116c82.674,60.84,208.699,28.781,295.771,76.145
		c-2.357-13.051-4.543-26.131-6.627-39.229C877.754,1596.472,787.057,1479.421,684.817,1373.491z"/>
	<path style="fill:#2E3D16;" d="M1217.631,1526.76c18.96-15.248,39.213-28.793,62.289-35.973c6.436-2.003,12.958-3.424,19.533-4.457
		c17.552-11.67,33.571-25.26,47.284-41.713c25.357-30.425,41.099-68.943,71.209-94.672c38.992-33.318,95.587-39.613,134.976-72.461
		c47.246-39.401,93.867-143.771,89.275-205.118c-4.592-61.348,0.115-175.604,2.815-237.064
		c-102.793,102.677-224.773,148.171-338.818,185.175c-14.723,4.777-29.826,9.556-42.147,18.925
		c-13.619,10.357-22.697,25.449-31.289,40.245c-96.258,165.762-173.311,342.649-229.302,525.971
		c0.943,8.914,1.954,17.825,3.042,26.729C1059.227,1576.345,1141.927,1556.167,1217.631,1526.76z"/>
	<path style="fill:#4C692B;" d="M889.945,1203.848c-9.326-20.271-19.553-40.881-36.272-55.658
		c-21.311-18.836-50.244-25.772-77.582-33.619c-59.724-17.143-118.321-42.1-165.618-82.397
		c-23.609-20.114-44.799-44.2-73.806-56.732c40.172,86.497,35.501,233.922,123.418,289.132
		c42.639,26.777,98.043,15.645,147.358,25.805c47.157,9.716,87.066,38.522,124.011,70.299c0.272-16.679,0.685-34.497,1.285-52.888
		C919.858,1272.594,905.61,1237.897,889.945,1203.848z"/>
	<path style="fill:#6C8138;" d="M1677.278,1481.663c-87.995,25.637-181.924,23.804-272.648,10.775
		c-34.855-5.005-70.828-11.504-105.177-6.108c-6.575,1.033-13.097,2.455-19.533,4.457c-23.076,7.181-43.329,20.725-62.289,35.973
		c-6.861,5.519-13.566,11.245-20.156,16.995c-62.666,54.683-122.02,113.162-177.63,175.006c1.151,6.041,2.334,12.073,3.586,18.087
		c76.138-23.874,155.556-43.977,232.762-26.796c72.496,16.134,140.317,64.597,213.874,54.337
		c151.665-21.155,234.479-222.347,340.81-314.457C1764.271,1449.263,1721.201,1468.866,1677.278,1481.663z"/>
	<path style="fill:#834B24;" d="M1006.498,1632.345c-1.089-8.904-2.099-17.815-3.042-26.729
		c-3.727-35.225-6.392-70.481-8.492-105.411c-4.733-78.743-4.417-118.177-0.723-224.545c0.695-20,7.942-62.346,12.923-105.706
		c-10.085,7.309-20.386,14.78-30.776,22.292c-1.103,1.144-2.255,2.288-3.383,3.432c-0.908,0.921-1.798,1.84-2.721,2.76
		c-1.4,1.395-2.843,2.789-4.281,4.184c-0.017,0.863,0.038,1.815-0.037,2.606c-0.495-0.38-0.987-0.76-1.481-1.14
		c-1.036,0.996-2.038,1.992-3.093,2.987c-0.018,0.017-0.035,0.034-0.053,0.052c0,0-0.099-0.105-0.241-0.257
		c-0.018-0.018-0.022-0.024-0.042-0.045c-0.337-0.362-0.99-1.074-1.934-2.144c-0.038-0.043-0.078-0.089-0.117-0.133
		c-0.446-0.506-0.95-1.087-1.509-1.739c-0.039-0.046-0.073-0.085-0.113-0.131c-1.216-1.421-2.681-3.181-4.348-5.254
		c-0.04-0.05-0.078-0.098-0.119-0.148c-1.263-1.573-2.634-3.323-4.105-5.252c-2.999-2.313-5.987-4.619-8.968-6.921
		c-3.584,39.56-5.793,82.467-7.104,122.69c-0.6,18.391-1.012,36.209-1.285,52.888c-0.667,40.762-0.496,74.688-0.167,93.279
		c1.591,89.705,9.511,179.298,23.612,267.903c2.084,13.098,4.27,26.178,6.627,39.229c11.292,62.523,25.688,124.484,43.226,185.556
		c8.037,27.988,18.356,58.048,42.761,73.932c24.405,15.884,66.05,5.517,68.866-23.466c1.327-13.661-6.031-26.469-12.82-38.398
		c-39.178-68.839-63.959-144.147-80.127-221.867c-1.251-6.014-2.435-12.046-3.586-18.087
		C1014.399,1690.17,1010.038,1661.3,1006.498,1632.345z"/>
	<path style="fill:#ECCAC1;" d="M1294.716,800.61c1.5-1.983,3.009-4.004,4.495-5.926c-2.706-8.905-5.815-17.708-9.226-26.406
		C1291.795,779.415,1293.465,790.701,1294.716,800.61z"/>
	<path style="fill:#ECCAC1;" d="M1297.611,725.617c1.531,1.814,4.258-0.503,3.189-2.462c-16.844-30.88-33.738-61.797-52.048-91.843
		c8.832,21.023,17.847,43.409,28.186,75.628C1284.43,712.479,1291.553,718.44,1297.611,725.617z"/>
	<path style="fill:#ECCAC1;" d="M878.898,684.303c0.424,0.61,0.846,1.222,1.269,1.833c1.255-3.115,2.441-5.995,3.535-8.575
		C882.106,679.813,880.475,682.039,878.898,684.303z"/>
	<path style="fill:#ECCAC1;" d="M912.933,515.547c-9.903,13.016-19.36,26.365-28.513,39.918
		c-1.976-13.319-1.388-26.759,0.791-40.075c0.337-2.052-1.771-3.292-3.394-1.976c-25.245,20.463-47.443,44.396-66.311,70.839
		c-1.041,1.459-2.035,2.949-3.055,4.422c2.677,3.852,5.354,7.704,8.03,11.556c26.989-42.383,47.479-57.952,47.479-57.952
		c-5.709,25.611-17.214,54.002-30.919,81.782c6.555,9.432,13.109,18.865,19.663,28.297
		c30.755-67.545,73.051-132.014,122.171-167.969l-12.953,53.918c5.753-9.014,11.78-18.581,18.262-29.151l-3.434,3.782l9.561-48.748
		l-44.178,26.764l55.646-54.483v33.455l32.443-15.875l-36.559,40.262c0.968,3.098,2.661,6.953,4.837,11.272
		c12.605-11.029,26.297-20.816,40.913-28.995c-10.789,14.804-21.538,29.802-32.035,45.006c3.125,5.279,6.457,10.665,9.703,15.801
		c0.619-0.82,1.224-1.657,1.846-2.473c-0.286,1.327-0.599,2.657-0.89,3.984c5.328,8.395,10.304,15.958,13.574,21.036l1.18-25.02
		l58.677,114.702l-3.675,11.016c3.36,6.495,6.384,12.51,9.155,18.186c1.502-3.471,3.003-6.745,4.505-9.664
		c-0.367,3.3-0.735,6.587-1.103,9.879c3.892-5.6,7.783-11.2,11.674-16.801c-6.769-23.791-15.216-47.129-25.965-68.621
		c-15.753-31.498-43.584-55.68-53.269-90.058c40.305,32.938,81.23,76.148,102.36,125.398c2.338-3.364,4.675-6.728,7.013-10.092
		c-50.735-102.529-111.943-173.674-111.943-173.674c50.01,44.161,92.289,96.973,124.732,155.269
		c0.222-0.318,0.443-0.636,0.664-0.954c-20.383-44.667-36.831-91.129-48.984-138.699c26.067,32.921,51.111,66.651,75.1,101.115
		c2.472-3.558,4.945-7.115,7.417-10.674c-4.588-5.87-9.187-11.735-13.763-17.631c-14.122-18.197-29.676-35.205-44.465-52.849
		c-6.705-7.999-13.21-16.176-19.342-24.61c-13.036-5.82-26.217-10.703-39.512-14.526c-26.462-7.606-53.346-11.133-80.29-10.543
		c-2.93,0.064-5.858,0.159-8.788,0.322C960.392,457.672,935.612,485.74,912.933,515.547z"/>
	<path style="fill:#ECCAC1;" d="M1116.163,613.711c1.711,13.648,3.423,27.295,5.135,40.942c4.471-6.434,8.942-12.868,13.412-19.302
		C1128.529,628.137,1122.346,620.924,1116.163,613.711z"/>
	<path style="fill:#CEA696;" d="M1260.431,969.319c-6.091,2.661-12.221,5.136-18.395,7.385c0.413,0.71,0.838,1.414,1.241,2.126
		C1249.117,975.823,1254.828,972.636,1260.431,969.319z"/>
	<path style="fill:#CEA696;" d="M1182.719,990.573c2.453-0.039,4.907-0.05,7.361-0.064c0.994-1.456,1.975-2.922,2.938-4.398
		c1.007-2.761,2.063-5.469,3.1-8.197c-0.355,0.253-0.711,0.508-1.067,0.762C1190.964,982.744,1186.845,986.718,1182.719,990.573z"/>
	<path style="fill:#A18285;" d="M1243.272,978.832c0.002-0.001,0.003-0.002,0.005-0.003l0,0c-0.404-0.713-0.828-1.417-1.241-2.126
		c-16.557,6.029-33.391,10.543-50.429,13.138c0.453-1.263,0.952-2.474,1.411-3.731c-0.964,1.477-1.945,2.942-2.938,4.398
		c6.083-0.035,12.164-0.028,18.219,0.025c3.155,0.027,6.344,0.085,9.542,0.169c0.113-0.048,0.222-0.1,0.335-0.148
		c0.029-0.013,0.058-0.026,0.087-0.039c3.204-1.365,6.386-2.775,9.548-4.221c0.128-0.059,0.26-0.113,0.387-0.172
		c0.833-0.382,1.67-0.75,2.5-1.138c0.026-0.012,0.052-0.026,0.078-0.038C1234.985,982.979,1239.16,980.95,1243.272,978.832z"/>
	<path style="fill:#A18285;" d="M696.723,710.142c21.087-67.633,36.524-93.315,55.398-144.516
		c-4.268,5.205-8.422,10.488-12.446,15.854c-5.513,7.352-10.706,14.9-15.749,22.532c-7.467,11.302-14.403,22.891-20.802,34.737
		c-3.164,5.857-6.192,11.771-9.087,17.746c-3.074,6.345-5.996,12.749-8.76,19.215c-3.239,7.575-6.307,15.21-9.112,22.933
		c-4.764,13.117-8.949,26.414-12.42,39.878c-0.634,2.46-1.144,4.946-1.734,7.416c8.458,3.459,16.848,7.072,25.052,10.931
		c0.209-0.819,0.451-1.629,0.663-2.447C691.104,734.595,694.673,716.716,696.723,710.142z"/>
	<path style="fill:#A18285;" d="M787.242,552.397c15.76-20.871,33.464-40.291,53.14-53.758
		c29.85-20.431,67.924-26.476,99.652-44.588c-52.45,32.666-97.153,75.959-134.172,125.142c2.196,3.161,4.392,6.321,6.589,9.482
		c1.02-1.473,2.014-2.963,3.055-4.422c18.868-26.443,41.067-50.376,66.311-70.839c1.623-1.316,3.731-0.076,3.394,1.976
		c-2.18,13.317-2.767,26.756-0.791,40.075c9.153-13.554,18.61-26.902,28.513-39.918c22.679-29.807,47.459-57.875,74.057-84.13
		v-0.001c-0.01,0.001-0.021,0.002-0.032,0.003c-15.955,0.893-31.915,3.297-47.808,7.174c-0.93,0.227-1.861,0.438-2.791,0.675
		c-3.161,0.807-6.318,1.698-9.473,2.625c-1.296,0.381-2.591,0.767-3.886,1.168c-2.975,0.922-5.948,1.896-8.917,2.927
		c-1.468,0.509-2.932,1.05-4.398,1.586c-2.865,1.047-5.728,2.114-8.585,3.263c-1.551,0.624-3.097,1.306-4.646,1.96
		c-2.801,1.182-5.603,2.354-8.395,3.636c-1.431,0.657-2.854,1.392-4.282,2.076c-4.763,2.277-9.509,4.709-14.241,7.277
		c-2.262,1.227-4.526,2.427-6.779,3.722c-2.06,1.183-4.109,2.454-6.162,3.693c-2.356,1.422-4.71,2.846-7.057,4.342
		c-1.977,1.261-3.946,2.577-5.916,3.891c-2.432,1.622-4.859,3.274-7.279,4.977c-1.88,1.323-3.756,2.669-5.629,4.04
		c-2.554,1.87-5.097,3.801-7.637,5.762c-1.721,1.329-3.443,2.649-5.158,4.021c-2.834,2.267-5.653,4.626-8.467,7.009
		c-1.411,1.195-2.83,2.349-4.237,3.573c-4.212,3.666-8.406,7.437-12.571,11.365c-5.351,5.048-10.54,10.234-15.623,15.505
		C780.428,542.591,783.835,547.494,787.242,552.397z"/>
	<path style="fill:#A18285;" d="M1134.922,480.772c14.788,17.644,30.343,34.652,44.465,52.849
		c4.576,5.896,9.175,11.762,13.763,17.631c5.475-7.879,10.95-15.757,16.424-23.636c14.796,47.455,26.809,74.248,39.18,103.696
		c18.31,30.046,35.204,60.963,52.048,91.843c1.069,1.959-1.658,4.276-3.189,2.462c-6.058-7.177-13.182-13.138-20.673-18.677
		c0.843,2.625,1.693,5.307,2.554,8.068c2.356,7.557,6.719,30.047,10.493,53.27c3.411,8.698,6.52,17.501,9.226,26.406
		c17.392-22.484,33.747-40.822,47.205-54.354c3.448-3.467,6.921-6.816,10.406-10.106c-1.886-6.787-3.99-13.516-6.408-20.129
		c-2.206-6.031-4.66-11.968-7.24-17.855c-2.365-5.4-4.827-10.76-7.482-16.043c-1.849-3.681-3.767-7.335-5.748-10.961
		c-0.864-1.581-1.785-3.138-2.673-4.708c-5.219-9.239-10.8-18.322-16.765-27.22c-2.326-3.471-4.704-6.916-7.129-10.337
		c-7.277-10.263-14.982-20.308-23.008-30.153c-2.676-3.281-5.387-6.54-8.13-9.778c-10.007-11.81-20.446-23.321-31.105-34.59
		c-1.028-1.087-2.046-2.184-3.078-3.266c-0.017-0.017-0.034-0.033-0.051-0.051c-4.46-4.675-8.972-9.187-13.521-13.587
		c-1.366-1.321-2.752-2.574-4.126-3.87c-3.269-3.085-6.549-6.135-9.86-9.078c-1.344-1.194-2.696-2.356-4.046-3.526
		c-0.006-0.005-0.013-0.011-0.02-0.017c-0.174-0.151-0.352-0.291-0.526-0.442c-3.279-2.832-6.571-5.615-9.888-8.309
		c-0.647-0.526-1.281-1.101-1.929-1.621c-0.794-0.638-1.605-1.215-2.401-1.845c-3.601-2.845-7.223-5.612-10.866-8.293
		c-1.149-0.846-2.294-1.704-3.447-2.533c-4.359-3.137-8.744-6.165-13.158-9.067c-0.444-0.291-0.883-0.602-1.328-0.891
		c-15.482-10.085-31.278-18.734-47.306-25.89c-0.002-0.001-0.004-0.002-0.005-0.003h0
		C1121.712,464.596,1128.217,472.773,1134.922,480.772z"/>
	<path style="fill:#FFF8F7;" d="M1043.412,476.59c-14.616,8.179-28.308,17.966-40.913,28.995c2.471,4.905,5.548,10.386,8.878,16.01
		C1021.874,506.391,1032.623,491.394,1043.412,476.59z"/>
	<path style="fill:#FFF8F7;" d="M888.648,666.75c31.66-59.382,51.862-88.634,77.274-128.443l12.953-53.918
		c-49.12,35.955-91.416,100.424-122.171,167.969c7.036,10.125,14.071,20.249,21.107,30.374c0.363,0.522,0.724,1.049,1.088,1.572
		c1.577-2.265,3.208-4.49,4.803-6.742C885.722,672.795,887.431,669.031,888.648,666.75z"/>
	<path style="fill:#BAA29F;" d="M1116.163,613.711c6.182,7.213,12.365,14.426,18.548,21.64c1.48-2.13,2.96-4.26,4.44-6.39
		c-21.13-49.25-62.055-92.46-102.36-125.398c9.685,34.378,37.516,58.56,53.269,90.058c10.749,21.492,19.196,44.83,25.965,68.621
		c1.758-2.53,3.516-5.059,5.274-7.589C1119.587,641.005,1117.875,627.358,1116.163,613.711z"/>
	<path style="fill:#A18285;" d="M1022.927,534.922c-0.622,0.817-1.227,1.653-1.846,2.473c0.32,0.506,0.638,1.01,0.956,1.511
		C1022.328,537.58,1022.641,536.249,1022.927,534.922z"/>
	<path style="fill:#A18285;" d="M1110.632,460.811c12.153,47.57,28.601,94.032,48.984,138.699
		c8.705-12.528,17.41-25.055,26.116-37.583C1161.743,527.462,1136.699,493.732,1110.632,460.811z"/>
	<path style="fill:#A18285;" d="M1034.221,445.195c0,0,61.207,71.145,111.943,173.674c4.263-6.135,8.526-12.27,12.789-18.405
		C1126.51,542.168,1084.231,489.357,1034.221,445.195z"/>
	<path style="fill:#BAA29F;" d="M867.96,542.279c0,0-20.489,15.569-47.479,57.952c5.52,7.944,11.04,15.887,16.559,23.83
		C850.745,596.281,862.251,567.89,867.96,542.279z"/>
	<path style="fill:#BAA29F;" d="M997.179,487.611c-0.744,1.255-0.484,3.608,0.483,6.702l36.559-40.262l-32.443,15.875V436.47
		l-55.646,54.483l44.178-26.764l-9.561,48.748l3.434-3.782C988.315,502.419,992.623,495.294,997.179,487.611z"/>
	<path style="fill:#BAA29F;" d="M1087.717,652.829c1.408,2.675,2.765,5.275,4.077,7.812l3.675-11.016l-58.677-114.702l-1.18,25.02
		c1.412,2.194,2.522,3.946,3.18,5.068C1055.743,593.903,1072.092,623.149,1087.717,652.829z"/>
	<path style="fill:#E32F68;" d="M724.071,983.89c30.118,0.664,60.827,1.927,89.169,9.48c-1.076-1.22-2.157-2.436-3.229-3.659
		c-0.588-0.508-1.165-1.013-1.741-1.519c-1.448-1.269-2.861-2.53-4.244-3.784c-0.497-0.451-1.007-0.904-1.496-1.352
		c-1.805-1.657-3.56-3.301-5.253-4.93c-0.366-0.351-0.709-0.697-1.07-1.047c-1.341-1.303-2.65-2.597-3.921-3.88
		c-0.522-0.527-1.035-1.052-1.546-1.577c-1.142-1.172-2.253-2.335-3.339-3.491c-0.428-0.455-0.866-0.914-1.285-1.367
		c-1.449-1.566-2.858-3.12-4.206-4.656c-0.189-0.216-0.365-0.428-0.553-0.643c-1.164-1.336-2.291-2.66-3.381-3.972
		c-0.394-0.474-0.777-0.944-1.161-1.415c-0.896-1.098-1.766-2.186-2.613-3.266c-0.345-0.441-0.695-0.883-1.033-1.321
		c-1.132-1.471-2.231-2.93-3.273-4.367c-0.016-0.022-0.03-0.042-0.045-0.064c-1.031-1.424-2.006-2.827-2.952-4.218
		c-0.28-0.412-0.548-0.818-0.82-1.227c-0.693-1.039-1.363-2.068-2.01-3.088c-0.255-0.401-0.512-0.804-0.76-1.202
		c-0.799-1.284-1.569-2.556-2.296-3.809c-0.043-0.074-0.09-0.149-0.133-0.223c-0.78-1.349-1.513-2.676-2.215-3.988
		c-0.175-0.327-0.34-0.649-0.51-0.973c-0.525-1.001-1.03-1.991-1.512-2.97c-0.17-0.343-0.339-0.687-0.503-1.028
		c-0.542-1.126-1.058-2.238-1.545-3.333c-0.054-0.12-0.113-0.244-0.166-0.365c-0.546-1.241-1.053-2.459-1.531-3.66
		c-0.095-0.237-0.182-0.47-0.274-0.706c-0.374-0.96-0.728-1.907-1.062-2.841c-0.102-0.285-0.203-0.569-0.301-0.852
		c-0.348-1.002-0.674-1.989-0.977-2.96c-0.039-0.124-0.082-0.252-0.12-0.376c-0.347-1.128-0.664-2.233-0.953-3.316
		c-0.036-0.137-0.068-0.27-0.104-0.407c-0.242-0.927-0.464-1.834-0.668-2.728c-0.05-0.221-0.099-0.439-0.147-0.657
		c-0.197-0.898-0.377-1.78-0.537-2.643c-0.019-0.103-0.041-0.208-0.06-0.31c-0.184-1.013-0.344-2.003-0.481-2.967l0,0l0,0
		c-2.332-16.466,1.891-25.725,1.891-25.725c4.275-20.109,6.853-40.963,8.375-60.382c-5.412-7.303-11.551-14.205-18.564-20.527
		c-14.827-13.365-32.688-23.678-51.622-32.602c-0.076-0.036-0.152-0.074-0.229-0.111c-8.204-3.859-16.594-7.473-25.052-10.931
		c-4.523-1.85-9.055-3.671-13.582-5.463c-15.081-5.97-31.109-11.849-47.424-12.54c-18.376-18.798-39.107-38.493-61.544-58.083
		c-26.991-23.566-56.418-46.966-87.112-68.42l9.687,72.525c16.918,56.709,6.989,123.398,40.774,174.16
		c24.745,37.179,63.874,62.07,103.079,83.459c35.532,19.385,72.143,36.781,109.572,52.188
		C718.347,983.782,721.223,983.827,724.071,983.89z"/>
	<path style="fill:#AC264F;" d="M1356.822,730.224c-3.484,3.291-6.957,6.639-10.406,10.106
		c-13.458,13.532-29.814,31.87-47.205,54.354c-1.486,1.921-2.995,3.943-4.495,5.926c0.535,4.241,0.993,8.222,1.352,11.829
		c28.763-6.892,59.913-7.053,90.435-6.643c20.529,0.275,42.402,1.088,59.996,11.192c-50.832,31.209-101.664,62.418-152.496,93.627
		c-19.187,11.781-57.403,38.428-97.885,67.299c-1.037,2.728-2.092,5.436-3.1,8.197c-0.459,1.257-0.959,2.467-1.411,3.731
		c17.038-2.594,33.872-7.108,50.429-13.138c6.174-2.248,12.304-4.724,18.395-7.385c0.021-0.009,0.041-0.018,0.061-0.026
		c86.17-37.657,163.62-114.731,220.05-180.998c34.369-40.36,57.557-119.132,59.646-186.147
		c-26.477,17.76-52.946,33.613-79.054,50.096C1425.362,674.829,1390.277,698.636,1356.822,730.224L1356.822,730.224z"/>
	<path style="fill:#E65480;" d="M758.696,725.686c16.614,21.313,57.23,53.711,88.834,77.46c0.003-8.587,0.389-16.588,1.093-23.009
		c1.456-13.28,19.566-64.267,31.544-94c-0.423-0.611-0.845-1.224-1.269-1.833c-0.363-0.523-0.725-1.049-1.088-1.572
		c-7.036-10.125-14.071-20.249-21.107-30.374c-6.555-9.432-13.109-18.865-19.663-28.297c-5.519-7.944-11.039-15.887-16.559-23.83
		c-2.677-3.852-5.354-7.704-8.03-11.556c-2.196-3.161-4.392-6.321-6.589-9.482c-6.207-8.932-12.413-17.864-18.62-26.796
		c-3.407-4.903-6.814-9.806-10.221-14.71c-0.218-0.314-0.437-0.628-0.655-0.941c-3.242-4.665-6.483-9.331-9.725-13.995
		c-2.646,8.486-5.199,16.285-7.684,23.582c-0.441,1.295-0.88,2.576-1.317,3.838c-1.876,5.424-3.714,10.557-5.519,15.455c0,0,0,0,0,0
		c-18.874,51.2-34.312,76.882-55.398,144.516c-2.049,6.574-5.619,24.453-8.997,44.279c-0.145,0.851-0.29,1.701-0.434,2.557
		c18.935,8.924,36.796,19.237,51.622,32.602c7.014,6.322,13.153,13.224,18.564,20.527
		C761.11,763.791,758.696,725.686,758.696,725.686z"/>
	<path style="fill:#D7396F;" d="M1195.051,978.676c-5.569,3.973-11.175,7.984-16.781,12.004c1.484-0.035,2.964-0.083,4.449-0.107
		C1186.845,986.718,1190.964,982.744,1195.051,978.676z"/>
	<path style="fill:#D7396F;" d="M1279.492,715.008c-0.861-2.76-1.711-5.442-2.554-8.068c-10.339-32.219-19.354-54.604-28.186-75.628
		c-12.371-29.448-24.384-56.241-39.18-103.696c-5.474,7.879-10.949,15.757-16.424,23.636c-2.472,3.558-4.945,7.116-7.417,10.674
		c-8.705,12.528-17.41,25.055-26.116,37.583c-0.221,0.318-0.442,0.636-0.664,0.954c-4.263,6.135-8.526,12.27-12.789,18.405
		c-2.338,3.364-4.675,6.728-7.013,10.092c-1.48,2.13-2.96,4.26-4.44,6.39c-4.47,6.434-8.942,12.868-13.412,19.302
		c-1.758,2.53-3.516,5.059-5.274,7.589c-3.891,5.6-7.782,11.2-11.674,16.801c-0.646,0.93-1.292,1.859-1.937,2.788
		c20.711,42.94,25.027,63.981,27.125,93.41c21.726-17.607,42.302-35.868,52.971-49.554c0,0-4.741,74.775,9.06,142.178
		c22.078-24.289,55.767-39.799,90.004-51.338c4.745-1.599,9.595-2.912,14.495-4.086c-0.358-3.607-0.816-7.588-1.352-11.829
		c-1.251-9.909-2.921-21.195-4.731-32.332C1286.212,745.055,1281.849,722.565,1279.492,715.008z"/>
	<path style="fill:#E84B57;" d="M1023.931,864.275c3.757-6.686,8.195-12.974,13.595-18.623c4.188-4.382,8.904-8.409,14.199-12.014
		c0,0,0.321-0.224,0.809-0.566c3.067-2.147,14.849-10.44,30.335-21.876c13.818-10.205,30.544-22.889,46.669-35.956
		c-2.098-29.429-6.414-50.47-27.125-93.41c-0.473-0.98-0.974-2-1.465-3.003c-2.771-5.675-5.795-11.691-9.155-18.186
		c-1.312-2.536-2.669-5.137-4.077-7.812c-15.624-29.679-31.974-58.925-48.926-87.817c-0.658-1.122-1.768-2.875-3.18-5.068
		c-3.27-5.078-8.246-12.642-13.574-21.036c-0.318-0.5-0.637-1.005-0.956-1.511c-3.247-5.136-6.578-10.522-9.703-15.801
		c-3.33-5.625-6.407-11.105-8.878-16.01c-2.176-4.319-3.869-8.174-4.837-11.272c-0.967-3.094-1.227-5.447-0.483-6.702
		c-4.556,7.684-8.864,14.808-12.995,21.545c-6.482,10.57-12.509,20.137-18.262,29.151c-25.412,39.809-45.614,69.061-77.274,128.443
		c-1.216,2.282-2.926,6.045-4.947,10.812c-1.094,2.58-2.28,5.46-3.535,8.575c-11.977,29.733-30.087,80.719-31.544,94
		c-0.704,6.422-1.089,14.422-1.093,23.009c16.026,12.043,29.699,21.839,36.771,26.847c2.355,1.667,3.977,2.805,4.713,3.319
		c0.043,0.03,0.124,0.087,0.161,0.113c0.174,0.122,0.305,0.213,0.305,0.213c5.295,3.605,10.01,7.632,14.199,12.014
		c9.023,9.439,15.532,20.558,20.176,32.624c13.94-24.73,32.307-50.103,56.165-75.856
		C980.019,802.42,1002.525,825.677,1023.931,864.275z"/>
	<path style="fill:#E32F68;" d="M1281.573,816.526c-34.237,11.539-67.926,27.049-90.004,51.338c0.179,0.875,0.348,1.754,0.534,2.626
		c0,0,9.516,20.86-7.922,55.659c0,0-0.001,0.002-0.001,0.003c-0.519,1.036-1.064,2.085-1.632,3.147
		c-0.019,0.035-0.036,0.069-0.054,0.103c-0.557,1.037-1.139,2.087-1.745,3.147c-0.033,0.059-0.064,0.116-0.098,0.175
		c-0.592,1.034-1.212,2.081-1.852,3.137c-0.053,0.088-0.102,0.175-0.156,0.263c-0.627,1.029-1.283,2.07-1.956,3.12
		c-0.076,0.119-0.147,0.234-0.223,0.353c-0.669,1.036-1.368,2.085-2.085,3.141c-0.09,0.134-0.175,0.265-0.267,0.4
		c-0.691,1.012-1.413,2.037-2.149,3.066c-0.135,0.189-0.262,0.375-0.398,0.564c-0.706,0.98-1.444,1.971-2.193,2.966
		c-0.184,0.245-0.357,0.486-0.544,0.731c-0.734,0.967-1.5,1.945-2.275,2.927c-0.218,0.277-0.425,0.55-0.647,0.828
		c-0.767,0.962-1.568,1.935-2.375,2.91c-0.253,0.306-0.494,0.608-0.751,0.916c-0.807,0.964-1.649,1.94-2.495,2.917
		c-0.281,0.324-0.548,0.643-0.833,0.968c-0.852,0.972-1.74,1.955-2.632,2.94c-0.307,0.339-0.6,0.673-0.911,1.013
		c-0.889,0.97-1.815,1.951-2.743,2.932c-0.345,0.364-0.674,0.724-1.025,1.09c-0.898,0.938-1.834,1.887-2.769,2.836
		c-0.414,0.42-0.812,0.836-1.234,1.258c-0.905,0.906-1.848,1.822-2.787,2.737c-0.484,0.472-0.951,0.939-1.445,1.414
		c-0.913,0.878-1.865,1.765-2.809,2.651c-0.555,0.52-1.093,1.037-1.659,1.56c-0.96,0.887-1.96,1.783-2.952,2.678
		c-0.584,0.527-1.15,1.049-1.746,1.579c-1.003,0.891-2.047,1.792-3.081,2.69c-0.629,0.546-1.239,1.088-1.88,1.636
		c-1.021,0.873-2.084,1.756-3.136,2.636c-0.108,0.091-0.214,0.181-0.323,0.271c-0.253,0.657-0.487,1.295-0.733,1.945
		c17.072-3.373,34.817-4.691,52.685-5.114c5.606-4.02,11.212-8.031,16.781-12.004c0.356-0.253,0.712-0.509,1.067-0.762
		c40.482-28.871,78.698-55.518,97.885-67.299c50.832-31.209,101.664-62.418,152.496-93.627
		c-17.594-10.105-39.467-10.917-59.996-11.192c-30.522-0.41-61.672-0.249-90.435,6.643
		C1291.168,813.614,1286.318,814.926,1281.573,816.526z"/>
	<path style="fill:#AC264F;" d="M773.083,914.043c6.118,4.893,12.993,8.499,21.405,9.475c10.215,1.185,20.06-0.948,29.846-3.224
		c11.893-2.766,23.449-4.366,35.167-0.023c1.069,0.396,2.784,0.191,3.012-1.048c3.063-16.627-3.806-33.387,1.468-49.836
		c4.468-13.937,13.122-26.446,20.235-39.453c0.031,0.022,0.053,0.037,0.084,0.059c-7.071-5.008-20.745-14.805-36.771-26.847
		c-31.604-23.749-72.219-56.147-88.834-77.46c0,0,2.413,38.105-1.218,84.421c-1.522,19.42-4.1,40.273-8.375,60.382
		c0,0-4.223,9.259-1.891,25.725c3.283,0.837,6.418,2.184,9.35,4.099C762.68,904.309,767.484,909.566,773.083,914.043z"/>
	<path style="fill:#932042;" d="M889.073,977.014c0.001-0.006,0.002-0.012,0.003-0.018v0c4.634-31.144,15.377-64.3,34.779-98.721
		c-4.644-12.065-11.153-23.185-20.176-32.624c-4.188-4.382-8.904-8.409-14.199-12.014c0,0-0.131-0.091-0.305-0.213
		c-0.05-0.035-0.098-0.068-0.161-0.113c-0.736-0.514-2.358-1.652-4.713-3.319c-0.031-0.022-0.052-0.037-0.084-0.059
		c-7.113,13.007-15.767,25.516-20.235,39.453c-5.274,16.449,1.594,33.209-1.468,49.836c-0.228,1.239-1.943,1.444-3.012,1.048
		c-11.718-4.343-23.274-2.742-35.167,0.023c-9.786,2.276-19.631,4.409-29.846,3.224c-8.412-0.976-15.288-4.582-21.405-9.475
		c-5.599-4.478-10.403-9.735-16.52-13.73c-2.932-1.915-6.067-3.262-9.35-4.099l0,0l0,0c0.137,0.964,0.297,1.954,0.481,2.967
		c0.018,0.102,0.04,0.207,0.06,0.31c0.16,0.863,0.34,1.746,0.537,2.643c0.048,0.219,0.097,0.437,0.147,0.657
		c0.204,0.893,0.426,1.802,0.668,2.728c0.036,0.136,0.067,0.269,0.104,0.407c0.289,1.083,0.606,2.188,0.953,3.316
		c0.038,0.124,0.081,0.252,0.12,0.376c0.303,0.97,0.63,1.958,0.977,2.96c0.098,0.282,0.199,0.567,0.301,0.852
		c0.333,0.933,0.688,1.881,1.062,2.841c0.092,0.236,0.179,0.469,0.274,0.706c0.478,1.2,0.985,2.419,1.531,3.66
		c0.053,0.12,0.112,0.245,0.166,0.365c0.486,1.096,1.003,2.208,1.545,3.333c0.164,0.341,0.333,0.684,0.503,1.028
		c0.481,0.978,0.986,1.969,1.512,2.97c0.17,0.324,0.335,0.646,0.51,0.973c0.702,1.312,1.435,2.639,2.215,3.988
		c0.043,0.073,0.09,0.149,0.133,0.223c0.728,1.253,1.498,2.525,2.296,3.809c0.247,0.398,0.505,0.801,0.76,1.202
		c0.647,1.02,1.317,2.049,2.01,3.088c0.273,0.409,0.54,0.815,0.82,1.227c0.946,1.391,1.921,2.794,2.952,4.218
		c0.015,0.021,0.029,0.042,0.045,0.064c1.041,1.438,2.141,2.897,3.273,4.367c0.337,0.438,0.687,0.88,1.033,1.321
		c0.846,1.08,1.717,2.169,2.613,3.266c0.385,0.471,0.767,0.941,1.161,1.415c1.091,1.313,2.217,2.637,3.381,3.972
		c0.188,0.215,0.364,0.427,0.553,0.643c1.349,1.536,2.758,3.09,4.206,4.656c0.42,0.453,0.857,0.912,1.285,1.367
		c1.086,1.156,2.198,2.319,3.339,3.491c0.511,0.524,1.024,1.049,1.546,1.577c1.272,1.284,2.581,2.578,3.921,3.88
		c0.36,0.35,0.704,0.696,1.07,1.047c1.694,1.629,3.449,3.273,5.253,4.93c0.489,0.448,0.999,0.901,1.496,1.352
		c1.383,1.254,2.796,2.515,4.244,3.784c0.577,0.506,1.153,1.011,1.741,1.519c0.055,0.048,0.114,0.096,0.169,0.144
		c1.496,1.292,3.031,2.593,4.596,3.9c4.848,1.336,9.645,2.808,14.334,4.554c22.545,8.398,41.864,21.564,57.989,37.418
		C885.604,1017.172,886.021,997.532,889.073,977.014z"/>
	<path style="fill:#AC264F;" d="M1082.869,811.196c0.002-0.002,0.005-0.003,0.006-0.005c0.002,4.69-0.386,9.397-0.746,14.003
		c-0.774,9.896-1.92,19.812-1.613,29.742c0.259,8.405,1.482,17.319,6.604,24.679c2.415,3.471,6.928,5.959,10.592,8.364
		c12.904,8.467,26.45,16.275,40.067,23.874c3.749,2.092,7.736,4.911,11.992,6.214c7.725,2.366,16.461,3.027,24.548,3.874
		c3.782,0.396,7.586,0.719,11.387,1.051c-0.484,1.038-0.992,2.089-1.525,3.154c17.438-34.799,7.922-55.659,7.922-55.659
		c-0.186-0.872-0.355-1.751-0.534-2.626c-13.801-67.403-9.06-142.178-9.06-142.178c-10.669,13.686-31.245,31.947-52.971,49.554
		C1113.413,788.307,1096.687,800.992,1082.869,811.196z"/>
	<path style="fill:#932042;" d="M1126.319,993.848c0.109-0.09,0.214-0.181,0.323-0.271c1.052-0.88,2.115-1.763,3.136-2.636
		c0.641-0.549,1.251-1.09,1.88-1.636c1.035-0.898,2.078-1.799,3.081-2.69c0.596-0.529,1.161-1.052,1.746-1.579
		c0.993-0.894,1.993-1.791,2.952-2.678c0.566-0.523,1.104-1.04,1.659-1.56c0.945-0.886,1.897-1.773,2.809-2.651
		c0.493-0.474,0.96-0.942,1.445-1.414c0.939-0.915,1.882-1.831,2.787-2.737c0.422-0.422,0.82-0.838,1.234-1.258
		c0.935-0.949,1.871-1.898,2.769-2.836c0.351-0.366,0.68-0.726,1.025-1.09c0.929-0.981,1.854-1.962,2.743-2.932
		c0.311-0.34,0.604-0.674,0.911-1.013c0.892-0.984,1.78-1.968,2.632-2.94c0.285-0.325,0.552-0.645,0.833-0.968
		c0.846-0.977,1.688-1.952,2.495-2.917c0.257-0.308,0.498-0.61,0.751-0.916c0.806-0.974,1.607-1.948,2.375-2.91
		c0.222-0.278,0.429-0.551,0.647-0.828c0.775-0.981,1.541-1.96,2.275-2.927c0.187-0.245,0.36-0.487,0.544-0.731
		c0.748-0.995,1.487-1.987,2.193-2.966c0.136-0.19,0.263-0.375,0.398-0.564c0.736-1.029,1.458-2.054,2.149-3.066
		c0.092-0.134,0.177-0.265,0.267-0.4c0.717-1.055,1.415-2.104,2.085-3.141c0.076-0.119,0.147-0.234,0.223-0.353
		c0.674-1.049,1.329-2.09,1.956-3.12c0.054-0.088,0.103-0.175,0.156-0.263c0.64-1.056,1.26-2.103,1.852-3.137
		c0.034-0.059,0.064-0.116,0.098-0.175c0.605-1.06,1.188-2.11,1.745-3.147c0.018-0.034,0.036-0.068,0.054-0.103
		c0.568-1.061,1.113-2.11,1.632-3.147c0-0.001,0.001-0.002,0.001-0.003c0.533-1.065,1.041-2.116,1.525-3.154
		c-3.801-0.332-7.605-0.655-11.387-1.051c-8.087-0.847-16.823-1.508-24.548-3.874c-4.256-1.304-8.243-4.122-11.992-6.214
		c-13.616-7.599-27.163-15.407-40.067-23.874c-3.665-2.405-8.177-4.893-10.592-8.364c-5.121-7.36-6.344-16.274-6.604-24.679
		c-0.307-9.93,0.839-19.846,1.613-29.742c0.36-4.606,0.748-9.313,0.746-14.003c-0.002,0.002-0.005,0.003-0.006,0.005
		c-15.485,11.437-27.268,19.73-30.335,21.876c-0.512,0.359-0.809,0.566-0.809,0.566c-5.295,3.605-10.01,7.632-14.199,12.014
		c-5.4,5.649-9.838,11.937-13.595,18.623c18.584,33.509,36.306,78.59,37.784,130.105c0.016,0.536,0.035,1.071,0.047,1.609
		c0.039,1.735,0.054,3.477,0.054,5.226c0,0.692-0.005,1.386-0.011,2.081c-0.014,1.733-0.039,3.468-0.091,5.215
		c-0.017,0.584-0.049,1.173-0.071,1.759c-0.163,4.331-0.413,8.689-0.825,13.096c12.604-9.015,26.622-16.454,42.048-21.664
		c6.683-2.257,13.559-3.975,20.523-5.43c0.384-0.314,0.788-0.633,1.168-0.947C1125.157,994.83,1125.728,994.342,1126.319,993.848z"
		/>
	<path style="fill:#E65474;" d="M887.099,1035.726c-16.125-15.854-35.444-29.02-57.989-37.418
		c-4.689-1.746-9.486-3.218-14.334-4.554c0,0,0,0-0.001,0c-0.507-0.14-1.025-0.25-1.534-0.385
		c-28.342-7.552-59.051-8.816-89.169-9.48c-2.848-0.063-5.724-0.108-8.61-0.128c-17.974-0.128-36.389,1.014-51.735,9.153
		c50.453,32.911,100.905,65.821,151.358,98.731c27.311,17.815,74.476,54.615,124.758,93.455c2.98,2.302,5.968,4.608,8.968,6.921
		C929.244,1166.36,893.058,1109.715,887.099,1035.726z"/>
	<path style="fill:#E65474;" d="M1208.299,990.534c-6.055-0.054-12.136-0.06-18.219-0.025c-2.454,0.014-4.908,0.025-7.361,0.064
		c-1.485,0.024-2.965,0.072-4.449,0.107c-17.868,0.423-35.614,1.741-52.685,5.114c-0.735,0.145-1.458,0.325-2.19,0.477
		c-0.003,0-0.005,0.001-0.007,0.001c-6.964,1.455-13.84,3.173-20.523,5.43c-15.426,5.21-29.444,12.649-42.048,21.664
		c-0.124,1.328-0.297,2.67-0.445,4.005c-0.105,0.949-0.205,1.897-0.322,2.849c-0.19,1.541-0.403,3.087-0.625,4.636
		c-0.153,1.067-0.315,2.137-0.484,3.208c-0.239,1.512-0.482,3.025-0.752,4.545c-0.203,1.144-0.431,2.293-0.652,3.443
		c-0.284,1.474-0.556,2.944-0.871,4.426c-0.51,2.399-1.062,4.808-1.654,7.225c-0.324,1.32-0.688,2.648-1.038,3.973
		c-0.365,1.387-0.73,2.773-1.123,4.165c-0.378,1.334-0.778,2.673-1.182,4.012c-0.427,1.416-0.868,2.834-1.325,4.256
		c-0.42,1.308-0.845,2.616-1.29,3.928c-0.53,1.56-1.093,3.124-1.66,4.689c-0.426,1.176-0.834,2.349-1.281,3.528
		c-0.989,2.609-2.028,5.226-3.122,7.85c-0.412,0.987-0.863,1.979-1.29,2.968c-0.781,1.809-1.573,3.62-2.407,5.436
		c-0.533,1.161-1.091,2.326-1.645,3.49c-0.804,1.687-1.628,3.375-2.478,5.067c-0.581,1.157-1.166,2.314-1.769,3.473
		c-0.953,1.834-1.947,3.672-2.957,5.512c-0.544,0.992-1.07,1.982-1.63,2.975c-1.56,2.766-3.175,5.535-4.862,8.31
		c-0.405,0.666-0.843,1.334-1.255,2.001c-1.356,2.19-2.741,4.382-4.179,6.578c-0.675,1.031-1.377,2.065-2.071,3.098
		c-1.26,1.875-2.545,3.751-3.866,5.629c-0.751,1.069-1.508,2.136-2.279,3.206c-1.421,1.97-2.887,3.942-4.376,5.916
		c-0.695,0.919-1.371,1.838-2.08,2.759c-2.204,2.858-4.465,5.718-6.817,8.582c-0.291,0.354-0.603,0.708-0.896,1.062
		c-2.096,2.532-4.252,5.067-6.468,7.604c-0.835,0.956-1.7,1.912-2.551,2.868c-1.759,1.974-3.549,3.949-5.382,5.924
		c-0.959,1.033-1.926,2.066-2.905,3.099c-0.817,0.863-1.612,1.725-2.443,2.587c10.391-7.513,20.691-14.983,30.776-22.292
		c43.444-31.487,82.773-59.865,106.839-74.524c51.444-31.337,102.889-62.674,154.334-94.01
		c-14.827-8.461-32.824-10.25-50.496-10.715C1214.643,990.619,1211.454,990.562,1208.299,990.534z"/>
	<path style="fill:#CD2855;" d="M1023.931,864.275c-21.406-38.598-43.912-61.856-43.912-61.856
		c-23.858,25.753-42.225,51.127-56.165,75.856c-19.402,34.421-30.145,67.576-34.779,98.721c0.613,0.451,1.21,0.917,1.84,1.349
		c2.169,1.487,4.511,3.213,7.097,4.112c6.208,2.161,13.257,1.372,19.64,0.337c6.745-1.093,13.779-2.738,20.618-1.234
		c5.986,1.317,10.757,4.891,14.91,8.643c4.294,3.879,8.096,8.129,12.258,12.107c4.189,4.005,8.729,7.276,13.951,10.238
		c5.439,3.084,10.923,6.179,16.707,8.775c3.234,1.451,6.701,2.888,10.366,3.277c5.729,0.608,9.292-2.603,11.971-6.528
		c4.56-6.678,8.315-13.603,13.668-19.891c7.802-9.167,17.725-16.096,28.399-22.235c0.63,6.042,1.035,12.192,1.214,18.432
		C1060.237,942.865,1042.515,897.785,1023.931,864.275z"/>
	<path style="fill:#AC1F4A;" d="M981.735,1186.56c1.833-1.976,3.623-3.95,5.382-5.924c0.852-0.956,1.717-1.912,2.551-2.868
		c2.216-2.537,4.371-5.071,6.468-7.604c0.292-0.354,0.605-0.708,0.896-1.062c2.352-2.863,4.613-5.723,6.817-8.582
		c0.709-0.921,1.385-1.839,2.08-2.759c1.49-1.974,2.956-3.946,4.376-5.916c0.771-1.069,1.528-2.138,2.279-3.206
		c1.321-1.878,2.606-3.754,3.866-5.629c0.694-1.033,1.396-2.066,2.071-3.098c1.438-2.196,2.823-4.388,4.179-6.578
		c0.412-0.667,0.85-1.335,1.255-2.001c1.688-2.775,3.303-5.545,4.862-8.31c0.56-0.993,1.086-1.983,1.63-2.975
		c1.009-1.84,2.003-3.677,2.957-5.512c0.603-1.159,1.188-2.316,1.769-3.473c0.849-1.691,1.674-3.38,2.478-5.067
		c0.554-1.164,1.113-2.328,1.645-3.49c0.833-1.816,1.625-3.626,2.407-5.436c0.428-0.989,0.878-1.981,1.29-2.968
		c1.095-2.624,2.133-5.24,3.122-7.85c0.447-1.178,0.855-2.352,1.281-3.528c0.567-1.565,1.13-3.129,1.66-4.689
		c0.446-1.312,0.87-2.621,1.29-3.928c0.456-1.421,0.898-2.84,1.325-4.256c0.404-1.339,0.805-2.678,1.182-4.012
		c0.393-1.392,0.758-2.778,1.123-4.165c0.349-1.325,0.714-2.653,1.038-3.973c0.592-2.417,1.144-4.825,1.654-7.225
		c0.315-1.481,0.587-2.952,0.871-4.426c0.222-1.149,0.449-2.299,0.652-3.443c0.269-1.52,0.514-3.033,0.752-4.545
		c0.168-1.072,0.33-2.141,0.484-3.208c0.222-1.549,0.435-3.096,0.625-4.636c0.117-0.952,0.217-1.9,0.322-2.849
		c0.637-5.763,1.058-11.466,1.27-17.101c0.022-0.586,0.054-1.175,0.071-1.759c0.052-1.746,0.077-3.482,0.091-5.215
		c0.006-0.694,0.011-1.388,0.011-2.081c0-1.749-0.016-3.492-0.054-5.226c-0.012-0.538-0.031-1.073-0.047-1.609
		c-0.179-6.24-0.585-12.39-1.214-18.432c-10.674,6.139-20.597,13.068-28.399,22.235c-5.353,6.289-9.109,13.213-13.668,19.891
		c-2.679,3.924-6.242,7.136-11.971,6.528c-3.665-0.389-7.132-1.826-10.366-3.277c-5.784-2.596-11.269-5.691-16.707-8.775
		c-5.222-2.961-9.763-6.233-13.951-10.238c-4.162-3.979-7.964-8.228-12.258-12.107c-4.153-3.752-8.924-7.326-14.91-8.643
		c-6.839-1.505-13.873,0.141-20.618,1.234c-6.383,1.035-13.432,1.824-19.64-0.337c-2.586-0.9-4.928-2.625-7.097-4.112
		c-0.631-0.432-1.228-0.898-1.84-1.349v0c-0.001,0.006-0.002,0.011-0.003,0.018c-16.132,108.46,41.566,192.488,63.842,220.26
		c0.041,0.05,0.079,0.098,0.119,0.148c1.666,2.073,3.132,3.831,4.348,5.254c0.04,0.046,0.073,0.085,0.113,0.131
		c0.558,0.652,1.063,1.232,1.509,1.739c0.039,0.044,0.079,0.09,0.117,0.133c0.928,1.053,1.589,1.774,1.934,2.144
		c0.02,0.021,0.024,0.027,0.042,0.045c0.146,0.157,0.241,0.257,0.241,0.257c0.018-0.017,0.035-0.034,0.053-0.052
		c1.056-0.995,2.057-1.991,3.093-2.987c0.508-0.488,1.015-0.977,1.519-1.466c1.438-1.395,2.882-2.789,4.281-4.184
		c0.924-0.92,1.814-1.84,2.721-2.76c1.128-1.144,2.28-2.288,3.383-3.432c0.831-0.862,1.626-1.724,2.443-2.587
		C979.809,1188.626,980.777,1187.592,981.735,1186.56z"/>
</g>
</svg>
